<svg width="4286" height="1526" xmlns="http://www.w3.org/2000/svg" xmlns:xlink="http://www.w3.org/1999/xlink" xml:space="preserve" overflow="hidden"><defs><radialGradient cx="0" cy="0" r="7271144" gradientUnits="userSpaceOnUse" spreadMethod="pad" id="fill0" gradientTransform="matrix(0.000360892 0 0 0.000360892 1773 790)"><stop offset="0" stop-color="#F2F2F2"/><stop offset="0.00492611" stop-color="#F1F1F1"/><stop offset="0.00985222" stop-color="#F1F1F1"/><stop offset="0.0147783" stop-color="#F1F1F1"/><stop offset="0.0197044" stop-color="#F1F1F1"/><stop offset="0.0246305" stop-color="#F1F1F1"/><stop offset="0.0295567" stop-color="#F1F1F1"/><stop offset="0.0344828" stop-color="#F1F1F1"/><stop offset="0.0394089" stop-color="#F1F1F1"/><stop offset="0.044335" stop-color="#F1F1F1"/><stop offset="0.0492611" stop-color="#F1F1F1"/><stop offset="0.0541872" stop-color="#F1F1F1"/><stop offset="0.0591133" stop-color="#F0F0F0"/><stop offset="0.0640394" stop-color="#F0F0F0"/><stop offset="0.0689655" stop-color="#F0F0F0"/><stop offset="0.0738916" stop-color="#F0F0F0"/><stop offset="0.0788177" stop-color="#F0F0F0"/><stop offset="0.0837438" stop-color="#F0F0F0"/><stop offset="0.0886699" stop-color="#EFEFEF"/><stop offset="0.0935961" stop-color="#EFEFEF"/><stop offset="0.0985222" stop-color="#EFEFEF"/><stop offset="0.103448" stop-color="#EFEFEF"/><stop offset="0.108374" stop-color="#EEEEEE"/><stop offset="0.1133" stop-color="#EEEEEE"/><stop offset="0.118227" stop-color="#EEEEEE"/><stop offset="0.123153" stop-color="#EDEDED"/><stop offset="0.128079" stop-color="#EDEDED"/><stop offset="0.133005" stop-color="#EDEDED"/><stop offset="0.137931" stop-color="#EDEDED"/><stop offset="0.142857" stop-color="#ECECEC"/><stop offset="0.147783" stop-color="#ECECEC"/><stop offset="0.152709" stop-color="#EBEBEB"/><stop offset="0.157635" stop-color="#EBEBEB"/><stop offset="0.162562" stop-color="#EBEBEB"/><stop offset="0.167488" stop-color="#EAEAEA"/><stop offset="0.172414" stop-color="#EAEAEA"/><stop offset="0.17734" stop-color="#EAEAEA"/><stop offset="0.182266" stop-color="#E9E9E9"/><stop offset="0.187192" stop-color="#E9E9E9"/><stop offset="0.192118" stop-color="#E8E8E8"/><stop offset="0.197044" stop-color="#E8E8E8"/><stop offset="0.20197" stop-color="#E7E7E7"/><stop offset="0.206897" stop-color="#E7E7E7"/><stop offset="0.211823" stop-color="#E6E6E6"/><stop offset="0.216749" stop-color="#E6E6E6"/><stop offset="0.221675" stop-color="#E5E5E5"/><stop offset="0.226601" stop-color="#E5E5E5"/><stop offset="0.231527" stop-color="#E4E4E4"/><stop offset="0.236453" stop-color="#E4E4E4"/><stop offset="0.241379" stop-color="#E3E3E3"/><stop offset="0.246305" stop-color="#E3E3E3"/><stop offset="0.251232" stop-color="#E2E2E2"/><stop offset="0.256158" stop-color="#E2E2E2"/><stop offset="0.261084" stop-color="#E1E1E1"/><stop offset="0.26601" stop-color="#E0E0E0"/><stop offset="0.270936" stop-color="#E0E0E0"/><stop offset="0.275862" stop-color="#DFDFDF"/><stop offset="0.280788" stop-color="#DFDFDF"/><stop offset="0.285714" stop-color="#DEDEDE"/><stop offset="0.29064" stop-color="#DDDDDD"/><stop offset="0.295566" stop-color="#DDDDDD"/><stop offset="0.300493" stop-color="#DCDCDC"/><stop offset="0.305419" stop-color="#DBDBDB"/><stop offset="0.310345" stop-color="#DBDBDB"/><stop offset="0.315271" stop-color="#DADADA"/><stop offset="0.320197" stop-color="#D9D9D9"/><stop offset="0.325123" stop-color="#D9D9D9"/><stop offset="0.330049" stop-color="#D8D8D8"/><stop offset="0.334975" stop-color="#D7D7D7"/><stop offset="0.339901" stop-color="#D7D7D7"/><stop offset="0.344828" stop-color="#D6D6D6"/><stop offset="0.349754" stop-color="#D5D5D5"/><stop offset="0.35468" stop-color="#D4D4D4"/><stop offset="0.359606" stop-color="#D4D4D4"/><stop offset="0.364532" stop-color="#D3D3D3"/><stop offset="0.369458" stop-color="#D2D2D2"/><stop offset="0.374384" stop-color="#D1D1D1"/><stop offset="0.37931" stop-color="#D0D0D0"/><stop offset="0.384236" stop-color="#D0D0D0"/><stop offset="0.389163" stop-color="#CFCFCF"/><stop offset="0.394089" stop-color="#CECECE"/><stop offset="0.399015" stop-color="#CDCDCD"/><stop offset="0.403941" stop-color="#CCCCCC"/><stop offset="0.408867" stop-color="#CBCBCB"/><stop offset="0.413793" stop-color="#CACACA"/><stop offset="0.418719" stop-color="#CACACA"/><stop offset="0.423645" stop-color="#C9C9C9"/><stop offset="0.428571" stop-color="#C8C8C8"/><stop offset="0.433498" stop-color="#C7C7C7"/><stop offset="0.438424" stop-color="#C6C6C6"/><stop offset="0.44335" stop-color="#C5C5C5"/><stop offset="0.448276" stop-color="#C4C4C4"/><stop offset="0.453202" stop-color="#C3C3C3"/><stop offset="0.458128" stop-color="#C2C2C2"/><stop offset="0.463054" stop-color="#C1C1C1"/><stop offset="0.46798" stop-color="#C0C0C0"/><stop offset="0.472906" stop-color="#BFBFBF"/><stop offset="0.477833" stop-color="#BEBEBE"/><stop offset="0.482759" stop-color="#BDBDBD"/><stop offset="0.487685" stop-color="#BCBCBC"/><stop offset="0.492611" stop-color="#BBBBBB"/><stop offset="0.497537" stop-color="#BABABA"/><stop offset="0.502463" stop-color="#B9B9B9"/><stop offset="0.507389" stop-color="#B8B8B8"/><stop offset="0.512315" stop-color="#B7B7B7"/><stop offset="0.517241" stop-color="#B6B6B6"/><stop offset="0.522168" stop-color="#B5B5B5"/><stop offset="0.527094" stop-color="#B4B4B4"/><stop offset="0.53202" stop-color="#B3B3B3"/><stop offset="0.536946" stop-color="#B2B2B2"/><stop offset="0.541872" stop-color="#B1B1B1"/><stop offset="0.546798" stop-color="#B0B0B0"/><stop offset="0.551724" stop-color="#AFAFAF"/><stop offset="0.55665" stop-color="#ADADAD"/><stop offset="0.561576" stop-color="#ACACAC"/><stop offset="0.566502" stop-color="#ABABAB"/><stop offset="0.571429" stop-color="#AAAAAA"/><stop offset="0.576355" stop-color="#A9A9A9"/><stop offset="0.581281" stop-color="#A8A8A8"/><stop offset="0.586207" stop-color="#A7A7A7"/><stop offset="0.591133" stop-color="#A5A5A5"/><stop offset="0.596059" stop-color="#A4A4A4"/><stop offset="0.600985" stop-color="#A3A3A3"/><stop offset="0.605911" stop-color="#A2A2A2"/><stop offset="0.610837" stop-color="#A1A1A1"/><stop offset="0.615764" stop-color="#9F9F9F"/><stop offset="0.62069" stop-color="#9E9E9E"/><stop offset="0.625616" stop-color="#9D9D9D"/><stop offset="0.630542" stop-color="#9C9C9C"/><stop offset="0.635468" stop-color="#9A9A9A"/><stop offset="0.640394" stop-color="#999999"/><stop offset="0.64532" stop-color="#989898"/><stop offset="0.650246" stop-color="#969696"/><stop offset="0.655172" stop-color="#959595"/><stop offset="0.660098" stop-color="#949494"/><stop offset="0.665025" stop-color="#939393"/><stop offset="0.669951" stop-color="#919191"/><stop offset="0.674877" stop-color="#909090"/><stop offset="0.679803" stop-color="#8F8F8F"/><stop offset="0.684729" stop-color="#8D8D8D"/><stop offset="0.689655" stop-color="#8C8C8C"/><stop offset="0.694581" stop-color="#8A8A8A"/><stop offset="0.699507" stop-color="#898989"/><stop offset="0.704434" stop-color="#888888"/><stop offset="0.70936" stop-color="#868686"/><stop offset="0.714286" stop-color="#858585"/><stop offset="0.719212" stop-color="#848484"/><stop offset="0.724138" stop-color="#828282"/><stop offset="0.729064" stop-color="#818181"/><stop offset="0.73399" stop-color="#7F7F7F"/><stop offset="0.738916" stop-color="#7E7E7E"/><stop offset="0.743842" stop-color="#7C7C7C"/><stop offset="0.748768" stop-color="#7B7B7B"/><stop offset="0.753695" stop-color="#797979"/><stop offset="0.758621" stop-color="#787878"/><stop offset="0.763547" stop-color="#767676"/><stop offset="0.768473" stop-color="#757575"/><stop offset="0.773399" stop-color="#737373"/><stop offset="0.778325" stop-color="#727272"/><stop offset="0.783251" stop-color="#707070"/><stop offset="0.788177" stop-color="#6F6F6F"/><stop offset="0.793103" stop-color="#6D6D6D"/><stop offset="0.79803" stop-color="#6C6C6C"/><stop offset="0.802956" stop-color="#6A6A6A"/><stop offset="0.807882" stop-color="#696969"/><stop offset="0.812808" stop-color="#676767"/><stop offset="0.817734" stop-color="#666666"/><stop offset="0.82266" stop-color="#646464"/><stop offset="0.827586" stop-color="#626262"/><stop offset="0.832512" stop-color="#616161"/><stop offset="0.837438" stop-color="#5F5F5F"/><stop offset="0.842365" stop-color="#5E5E5E"/><stop offset="0.847291" stop-color="#5C5C5C"/><stop offset="0.852217" stop-color="#5A5A5A"/><stop offset="0.857143" stop-color="#595959"/><stop offset="0.862069" stop-color="#575757"/><stop offset="0.866995" stop-color="#555555"/><stop offset="0.871921" stop-color="#545454"/><stop offset="0.876847" stop-color="#525252"/><stop offset="0.881773" stop-color="#505050"/><stop offset="0.886699" stop-color="#4F4F4F"/><stop offset="0.891626" stop-color="#4D4D4D"/><stop offset="0.896552" stop-color="#4B4B4B"/><stop offset="0.901478" stop-color="#4A4A4A"/><stop offset="0.906404" stop-color="#484848"/><stop offset="0.91133" stop-color="#464646"/><stop offset="0.916256" stop-color="#444444"/><stop offset="0.921182" stop-color="#434343"/><stop offset="0.926108" stop-color="#414141"/><stop offset="0.931035" stop-color="#3F3F3F"/><stop offset="0.935961" stop-color="#3D3D3D"/><stop offset="0.940887" stop-color="#3C3C3C"/><stop offset="0.945813" stop-color="#3A3A3A"/><stop offset="0.950739" stop-color="#383838"/><stop offset="0.955665" stop-color="#363636"/><stop offset="0.960591" stop-color="#343434"/><stop offset="0.965517" stop-color="#323232"/><stop offset="0.970443" stop-color="#313131"/><stop offset="0.975369" stop-color="#2F2F2F"/><stop offset="0.980296" stop-color="#2D2D2D"/><stop offset="0.985222" stop-color="#2B2B2B"/><stop offset="0.990148" stop-color="#292929"/><stop offset="0.995074" stop-color="#272727"/><stop offset="1" stop-color="#262626"/></radialGradient></defs><g transform="translate(-56 -446)"><path d="M74.5001 511.994C74.5001 484.659 96.6593 462.5 123.994 462.5L1176.01 462.5C1203.34 462.5 1225.5 484.659 1225.5 511.994L1225.5 956.006C1225.5 983.341 1203.34 1005.5 1176.01 1005.5L123.994 1005.5C96.6593 1005.5 74.5001 983.341 74.5001 956.006Z" stroke="#000000" stroke-width="20.625" stroke-miterlimit="8" fill="#FFFFFF" fill-rule="evenodd"/><text font-family="Arial,Arial_MSFontService,sans-serif" font-weight="400" font-size="83" transform="matrix(1 0 0 1 121.114 665)">•</text><text font-family="Times New Roman,Times New Roman_MSFontService,sans-serif" font-weight="400" font-size="83" transform="matrix(1 0 0 1 224.239 665)">Log Peer Networking</text><text font-family="Arial,Arial_MSFontService,sans-serif" font-weight="400" font-size="83" transform="matrix(1 0 0 1 121.114 764)">•</text><text font-family="Times New Roman,Times New Roman_MSFontService,sans-serif" font-weight="400" font-size="83" transform="matrix(1 0 0 1 224.239 764)">Log Address/Connection </text><text font-family="Times New Roman,Times New Roman_MSFontService,sans-serif" font-weight="400" font-size="83" transform="matrix(1 0 0 1 224.239 863)">Manager</text><text font-family="Arial,Arial_MSFontService,sans-serif" font-weight="400" font-size="83" transform="matrix(1 0 0 1 121.114 962)">•</text><text font-family="Times New Roman,Times New Roman_MSFontService,sans-serif" font-weight="400" font-size="83" transform="matrix(1 0 0 1 224.239 962)">Log Machine State</text><path d="M113.488 459.5 1188.51 459.5C1209.49 459.5 1226.5 476.508 1226.5 497.488L1226.5 571.5 75.5001 571.5 75.5001 497.488C75.5001 476.508 92.5078 459.5 113.488 459.5Z" stroke="#172C51" stroke-width="4.58333" stroke-miterlimit="8" fill-rule="evenodd"/><text fill="#FFFFFF" font-family="Times New Roman,Times New Roman_MSFontService,sans-serif" font-weight="400" font-size="83" transform="matrix(1 0 0 1 438.493 551)">Bitcoin Core</text><path d="M10.3112-0.161387 16.8104 415.077-3.81209 415.4-10.3112 0.161387ZM50.6081 357.862 6.81945 435.703-39.3838 359.271C-42.3302 354.397-40.7675 348.057-35.8934 345.111-31.0194 342.164-24.6796 343.727-21.7332 348.601L15.3245 409.904-2.48879 410.182 32.6322 347.75C35.4246 342.786 41.7124 341.026 46.6763 343.818 51.6402 346.611 53.4005 352.899 50.6081 357.862Z" transform="matrix(-1 0 0 1 417.319 1005.5)"/><path d="M66.4998 1496.75C66.4998 1472.31 86.3096 1452.5 110.746 1452.5L709.254 1452.5C733.69 1452.5 753.5 1472.31 753.5 1496.75L753.5 1912.25C753.5 1936.69 733.69 1956.5 709.254 1956.5L110.746 1956.5C86.3096 1956.5 66.4998 1936.69 66.4998 1912.25Z" stroke="#172C51" stroke-width="20.625" stroke-miterlimit="8" fill="none" fill-rule="evenodd"/><g><g><g><path d="M506.25 1537.88C506.25 1553.06 463.158 1565.38 410 1565.38 356.843 1565.38 313.75 1553.06 313.75 1537.88 313.75 1522.69 356.843 1510.38 410 1510.38 463.158 1510.38 506.25 1522.69 506.25 1537.88Z"/><path d="M478.75 1606.63C474.625 1606.63 471.875 1603.88 471.875 1599.75 471.875 1595.63 474.625 1592.88 478.75 1592.88 482.875 1592.88 485.625 1595.63 485.625 1599.75 485.625 1603.88 482.875 1606.63 478.75 1606.63ZM410 1579.13C357.063 1579.13 313.75 1566.75 313.75 1551.63L313.75 1606.63C313.75 1621.75 357.063 1634.13 410 1634.13 462.938 1634.13 506.25 1621.75 506.25 1606.63L506.25 1551.63C506.25 1566.75 462.938 1579.13 410 1579.13Z"/><path d="M478.75 1675.38C474.625 1675.38 471.875 1672.63 471.875 1668.5 471.875 1664.38 474.625 1661.63 478.75 1661.63 482.875 1661.63 485.625 1664.38 485.625 1668.5 485.625 1672.63 482.875 1675.38 478.75 1675.38ZM410 1647.88C357.063 1647.88 313.75 1635.5 313.75 1620.38L313.75 1675.38C313.75 1690.5 357.063 1702.88 410 1702.88 462.938 1702.88 506.25 1690.5 506.25 1675.38L506.25 1620.38C506.25 1635.5 462.938 1647.88 410 1647.88Z"/><path d="M478.75 1744.13C474.625 1744.13 471.875 1741.38 471.875 1737.25 471.875 1733.13 474.625 1730.38 478.75 1730.38 482.875 1730.38 485.625 1733.13 485.625 1737.25 485.625 1741.38 482.875 1744.13 478.75 1744.13ZM410 1716.63C357.063 1716.63 313.75 1704.25 313.75 1689.13L313.75 1744.13C313.75 1759.25 357.063 1771.63 410 1771.63 462.938 1771.63 506.25 1759.25 506.25 1744.13L506.25 1689.13C506.25 1704.25 462.938 1716.63 410 1716.63Z"/></g></g></g><text font-family="Times New Roman,Times New Roman_MSFontService,sans-serif" font-weight="400" font-size="83" transform="matrix(1 0 0 1 130.049 1903)">External Storage</text><text font-family="Times New Roman,Times New Roman_MSFontService,sans-serif" font-weight="400" font-size="83" transform="matrix(1 0 0 1 479.036 1136)">Export</text><text font-family="Times New Roman,Times New Roman_MSFontService,sans-serif" font-weight="400" font-size="83" transform="matrix(1 0 0 1 479.036 1235)">CSV</text><text font-family="Times New Roman,Times New Roman_MSFontService,sans-serif" font-weight="400" font-size="83" transform="matrix(1 0 0 1 479.036 1334)">Data</text><path d="M0.00171371-10.3125 311.856-10.2607 311.853 10.3643-0.00171371 10.3125ZM255.183-44.9591 332.321 0.0552242 255.168 45.0439C250.248 47.9128 243.934 46.2501 241.065 41.33 238.196 36.4099 239.858 30.0957 244.778 27.2267L306.659-8.85676 306.656 8.95868 244.788-27.1454C239.868-30.0159 238.208-36.3307 241.078-41.2499 243.949-46.169 250.264-47.8296 255.183-44.9591Z" transform="matrix(1 0 0 -1 753.5 1704.56)"/><path d="M1085.5 1496.75C1085.5 1472.31 1105.31 1452.5 1129.75 1452.5L1599.25 1452.5C1623.69 1452.5 1643.5 1472.31 1643.5 1496.75L1643.5 1912.25C1643.5 1936.69 1623.69 1956.5 1599.25 1956.5L1129.75 1956.5C1105.31 1956.5 1085.5 1936.69 1085.5 1912.25Z" stroke="#172C51" stroke-width="20.625" stroke-miterlimit="8" fill="none" fill-rule="evenodd"/><g><g><g><path d="M1352.66 1788.44C1299.38 1788.44 1256.41 1745.47 1256.41 1692.19 1256.41 1638.91 1299.38 1595.94 1352.66 1595.94 1405.94 1595.94 1448.91 1638.91 1448.91 1692.19L1448.91 1692.19C1448.91 1745.47 1405.94 1788.44 1352.66 1788.44ZM1434.12 1608.31 1444.44 1598C1448.22 1593.88 1448.22 1587.34 1444.09 1583.56 1439.97 1579.78 1433.78 1579.44 1429.66 1583.22L1417.97 1595.25C1401.47 1584.25 1382.56 1577.38 1362.97 1576L1362.97 1561.56 1393.91 1561.56 1393.91 1540.94 1311.41 1540.94 1311.41 1561.56 1342.34 1561.56 1342.34 1575.66C1277.72 1581.16 1230.28 1638.22 1235.78 1702.5 1241.28 1766.78 1298.34 1814.56 1362.62 1809.06 1426.91 1803.56 1474.69 1746.5 1469.19 1682.22 1466.78 1654.03 1454.41 1627.91 1434.12 1608.31Z"/><path d="M1294.22 1750.63C1326.53 1782.94 1378.78 1782.94 1410.75 1750.63 1442.72 1718.31 1443.06 1666.06 1410.75 1634.09 1395.28 1618.63 1374.31 1610.03 1352.66 1610.03L1352.66 1692.53 1294.22 1750.63Z"/></g></g></g><text font-family="Times New Roman,Times New Roman_MSFontService,sans-serif" font-weight="400" font-size="73" transform="matrix(1 0 0 1 1131.92 1899)">Update Interval</text><text font-family="Times New Roman,Times New Roman_MSFontService,sans-serif" font-weight="400" font-size="73" transform="matrix(1 0 0 1 1097.86 1564)">Wait             Until</text><path d="M0-10.3125 729.324-10.3125 729.324 118.892 708.699 118.892 708.699 0 719.011 10.3125 0 10.3125ZM764.013 62.2134 719.011 139.359 674.01 62.2134C671.14 57.2938 672.802 50.9793 677.721 48.1095 682.641 45.2397 688.956 46.9014 691.825 51.821L727.919 113.696 710.104 113.696 746.197 51.821C749.067 46.9014 755.382 45.2397 760.301 48.1095 765.221 50.9793 766.883 57.2938 764.013 62.2134Z" transform="matrix(-1.83697e-16 -1 -1 1.83697e-16 1364.81 1452.51)"/><text font-family="Times New Roman,Times New Roman_MSFontService,sans-serif" font-weight="400" font-size="83" transform="matrix(1 0 0 1 2091.22 1373)">Normal</text><text font-family="Times New Roman,Times New Roman_MSFontService,sans-serif" font-weight="400" font-size="83" transform="matrix(1 0 0 1 2017.89 1472)">Propagation</text><text font-family="Times New Roman,Times New Roman_MSFontService,sans-serif" font-weight="400" font-size="83" transform="matrix(1 0 0 1 2690.01 1373)">Slow</text><text font-family="Times New Roman,Times New Roman_MSFontService,sans-serif" font-weight="400" font-size="83" transform="matrix(1 0 0 1 2575.42 1472)">Propagation</text><text font-family="Times New Roman,Times New Roman_MSFontService,sans-serif" font-weight="400" font-size="83" transform="matrix(1 0 0 1 3263.59 1373)">Soft</text><text font-family="Times New Roman,Times New Roman_MSFontService,sans-serif" font-weight="400" font-size="83" transform="matrix(1 0 0 1 3190.25 1472)">Partition</text><path d="M1773 1076 1929.25 790 1929.25 909.127 4177.75 909.127 4177.75 790 4334 1076 4177.75 1362 4177.75 1242.87 1929.25 1242.87 1929.25 1362Z" stroke="#000000" stroke-width="13.75" stroke-miterlimit="8" fill="url(#fill0)" fill-rule="evenodd"/><text fill="#FFFFFF" font-family="Times New Roman,Times New Roman_MSFontService,sans-serif" font-weight="400" font-size="83" transform="matrix(1 0 0 1 3657.27 1174)">Greater Delay</text><text font-family="Times New Roman,Times New Roman_MSFontService,sans-serif" font-weight="400" font-size="83" transform="matrix(1 0 0 1 2040.59 1172)">Lower Delay</text><path d="M1984 780.529C1984 759.25 2001.25 742 2022.53 742L2406.47 742C2427.75 742 2445 759.25 2445 780.529L2445 1005.47C2445 1026.75 2427.75 1044 2406.47 1044L2022.53 1044C2001.25 1044 1984 1026.75 1984 1005.47Z" stroke="#000000" stroke-width="13.75" stroke-miterlimit="8" fill="#FFFFFF" fill-rule="evenodd"/><text font-family="Times New Roman,Times New Roman_MSFontService,sans-serif" font-weight="400" font-size="92" transform="matrix(1 0 0 1 2173.59 982)">IP</text><path d="M2025.41 742 2409.59 742C2430.8 742 2448 759.197 2448 780.41L2448 856 1987 856 1987 780.41C1987 759.197 2004.2 742 2025.41 742Z" stroke="#000000" stroke-width="13.75" stroke-miterlimit="8" fill="#F2F2F2" fill-rule="evenodd"/><text font-family="Times New Roman,Times New Roman_MSFontService,sans-serif" font-weight="400" font-size="73" transform="matrix(1 0 0 1 2026.48 819)">Bitcoin Over</text><text font-family="Times New Roman,Times New Roman_MSFontService,sans-serif" font-weight="400" font-size="83" transform="matrix(1 0 0 1 3839.46 1373)">No</text><text font-family="Times New Roman,Times New Roman_MSFontService,sans-serif" font-weight="400" font-size="83" transform="matrix(1 0 0 1 3676.75 1472)">Connectivity</text><path d="M2544 780.529C2544 759.25 2561.25 742 2582.53 742L2966.47 742C2987.75 742 3005 759.25 3005 780.529L3005 1005.47C3005 1026.75 2987.75 1044 2966.47 1044L2582.53 1044C2561.25 1044 2544 1026.75 2544 1005.47Z" stroke="#000000" stroke-width="13.75" stroke-miterlimit="8" fill="#FFFFFF" fill-rule="evenodd"/><text font-family="Times New Roman,Times New Roman_MSFontService,sans-serif" font-weight="400" font-size="92" transform="matrix(1 0 0 1 2711.82 982)">Tor</text><path d="M2582.41 742 2966.59 742C2987.8 742 3005 759.197 3005 780.41L3005 856 2544 856 2544 780.41C2544 759.197 2561.2 742 2582.41 742Z" stroke="#000000" stroke-width="13.75" stroke-miterlimit="8" fill="#F2F2F2" fill-rule="evenodd"/><text font-family="Times New Roman,Times New Roman_MSFontService,sans-serif" font-weight="400" font-size="73" transform="matrix(1 0 0 1 2584.02 819)">Bitcoin Over</text><path d="M3102 780.529C3102 759.25 3119.25 742 3140.53 742L3524.47 742C3545.75 742 3563 759.25 3563 780.529L3563 1005.47C3563 1026.75 3545.75 1044 3524.47 1044L3140.53 1044C3119.25 1044 3102 1026.75 3102 1005.47Z" stroke="#000000" stroke-width="13.75" stroke-miterlimit="8" fill="#FFFFFF" fill-rule="evenodd"/><text font-family="Times New Roman,Times New Roman_MSFontService,sans-serif" font-weight="400" font-size="92" transform="matrix(1 0 0 1 3268.74 982)">I2P</text><path d="M3140.41 742 3524.59 742C3545.8 742 3563 759.197 3563 780.41L3563 856 3102 856 3102 780.41C3102 759.197 3119.2 742 3140.41 742Z" stroke="#000000" stroke-width="13.75" stroke-miterlimit="8" fill="#F2F2F2" fill-rule="evenodd"/><text font-family="Times New Roman,Times New Roman_MSFontService,sans-serif" font-weight="400" font-size="73" transform="matrix(1 0 0 1 3141.56 819)">Bitcoin Over</text><path d="M3659 780.529C3659 759.25 3676.25 742 3697.53 742L4081.47 742C4102.75 742 4120 759.25 4120 780.529L4120 1005.47C4120 1026.75 4102.75 1044 4081.47 1044L3697.53 1044C3676.25 1044 3659 1026.75 3659 1005.47Z" stroke="#000000" stroke-width="13.75" stroke-miterlimit="8" fill="#FFFFFF" fill-rule="evenodd"/><text font-family="Times New Roman,Times New Roman_MSFontService,sans-serif" font-weight="400" font-size="92" transform="matrix(1 0 0 1 3749.51 982)">CJDNS</text><path d="M3697.41 742 4081.59 742C4102.8 742 4120 759.197 4120 780.41L4120 856 3659 856 3659 780.41C3659 759.197 3676.2 742 3697.41 742Z" stroke="#000000" stroke-width="13.75" stroke-miterlimit="8" fill="#F2F2F2" fill-rule="evenodd"/><text font-family="Times New Roman,Times New Roman_MSFontService,sans-serif" font-weight="400" font-size="73" transform="matrix(1 0 0 1 3699.09 819)">Bitcoin Over</text><path d="M1396 1079.82 1732.91 1079.82 1732.91 1106.18 1396 1106.18ZM1660.49 1035.5 1759.06 1093 1660.49 1150.5C1654.2 1154.17 1646.13 1152.05 1642.46 1145.76 1638.8 1139.47 1640.92 1131.41 1647.21 1127.74L1726.27 1081.62 1726.27 1104.38 1647.21 1058.26C1640.92 1054.6 1638.8 1046.53 1642.46 1040.24 1646.13 1033.95 1654.2 1031.83 1660.49 1035.5Z" fill="#595959"/></g></svg>