<svg preserveAspectRatio="xMidYMid meet" xmlns="http://www.w3.org/2000/svg" xmlns:xlink="http://www.w3.org/1999/xlink" viewBox="0 0 1400 1050" style="width:100%; height:auto; fill-opacity:1; color-rendering:auto; color-interpolation:auto; text-rendering:auto; stroke:black; stroke-linecap:square; stroke-miterlimit:10; shape-rendering:auto; stroke-opacity:1; fill:black; stroke-dasharray:none; font-weight:normal; stroke-width:1; font-family:'Dialog'; font-style:normal; stroke-linejoin:miter; font-size:12px; stroke-dashoffset:0; image-rendering:auto;"
><!--Generated by the Batik Graphics2D SVG Generator--><defs id="genericDefs"
  /><g
  ><defs id="defs1"
    ><clipPath clipPathUnits="userSpaceOnUse" id="clipPath1"
      ><path d="M0 0 L1400 0 L1400 1050 L0 1050 L0 0 Z"
      /></clipPath
    ></defs
    ><g style="fill-opacity:0.251; color-rendering:optimizeQuality; color-interpolation:linearRGB; text-rendering:geometricPrecision; stroke:rgb(26,26,26); stroke-linecap:butt; stroke-miterlimit:1; stroke-opacity:0.251; fill:rgb(26,26,26); stroke-dasharray:1,3; stroke-width:1.6667; stroke-linejoin:bevel; image-rendering:optimizeQuality;"
    ><line y2="79" style="fill:none;" x1="341.4412" x2="341.4412" y1="893"
      /><line y2="79" style="fill:none;" x1="389.3235" x2="389.3235" y1="893"
      /><line y2="79" style="fill:none;" x1="437.2059" x2="437.2059" y1="893"
      /><line y2="79" style="fill:none;" x1="532.9706" x2="532.9706" y1="893"
      /><line y2="79" style="fill:none;" x1="580.8529" x2="580.8529" y1="893"
      /><line y2="79" style="fill:none;" x1="628.7353" x2="628.7353" y1="893"
      /><line y2="79" style="fill:none;" x1="676.6176" x2="676.6176" y1="893"
      /><line y2="79" style="fill:none;" x1="772.3824" x2="772.3824" y1="893"
      /><line y2="79" style="fill:none;" x1="820.2647" x2="820.2647" y1="893"
      /><line y2="79" style="fill:none;" x1="868.147" x2="868.147" y1="893"
      /><line y2="79" style="fill:none;" x1="916.0294" x2="916.0294" y1="893"
      /><line y2="79" style="fill:none;" x1="1011.7941" x2="1011.7941" y1="893"
      /><line y2="79" style="fill:none;" x1="1059.6765" x2="1059.6765" y1="893"
      /><line y2="79" style="fill:none;" x1="1107.5588" x2="1107.5588" y1="893"
    /></g
    ><g style="stroke-linecap:butt; fill-opacity:0.149; fill:rgb(38,38,38); text-rendering:geometricPrecision; image-rendering:optimizeQuality; color-rendering:optimizeQuality; stroke-linejoin:round; stroke:rgb(38,38,38); color-interpolation:linearRGB; stroke-width:1.6667; stroke-opacity:0.149;"
    ><line y2="79" style="fill:none;" x1="485.0882" x2="485.0882" y1="893"
      /><line y2="79" style="fill:none;" x1="724.5" x2="724.5" y1="893"
      /><line y2="79" style="fill:none;" x1="963.9117" x2="963.9117" y1="893"
    /></g
    ><g style="fill-opacity:0.251; color-rendering:optimizeQuality; color-interpolation:linearRGB; text-rendering:geometricPrecision; stroke:rgb(26,26,26); stroke-linecap:butt; stroke-miterlimit:1; stroke-opacity:0.251; fill:rgb(26,26,26); stroke-dasharray:1,3; stroke-width:1.6667; stroke-linejoin:bevel; image-rendering:optimizeQuality;"
    ><line y2="836.4722" style="fill:none;" x1="1131.5" x2="317.5" y1="836.4722"
      /><line y2="779.9445" style="fill:none;" x1="1131.5" x2="317.5" y1="779.9445"
      /><line y2="723.4167" style="fill:none;" x1="1131.5" x2="317.5" y1="723.4167"
      /><line y2="610.3611" style="fill:none;" x1="1131.5" x2="317.5" y1="610.3611"
      /><line y2="553.8333" style="fill:none;" x1="1131.5" x2="317.5" y1="553.8333"
      /><line y2="497.3055" style="fill:none;" x1="1131.5" x2="317.5" y1="497.3055"
      /><line y2="384.25" style="fill:none;" x1="1131.5" x2="317.5" y1="384.25"
      /><line y2="327.7222" style="fill:none;" x1="1131.5" x2="317.5" y1="327.7222"
      /><line y2="271.1945" style="fill:none;" x1="1131.5" x2="317.5" y1="271.1945"
      /><line y2="158.1389" style="fill:none;" x1="1131.5" x2="317.5" y1="158.1389"
      /><line y2="101.6111" style="fill:none;" x1="1131.5" x2="317.5" y1="101.6111"
    /></g
    ><g style="stroke-linecap:butt; fill-opacity:0.149; fill:rgb(38,38,38); text-rendering:geometricPrecision; image-rendering:optimizeQuality; color-rendering:optimizeQuality; stroke-linejoin:round; stroke:rgb(38,38,38); color-interpolation:linearRGB; stroke-width:1.6667; stroke-opacity:0.149;"
    ><line y2="893" style="fill:none;" x1="1131.5" x2="317.5" y1="893"
      /><line y2="666.8889" style="fill:none;" x1="1131.5" x2="317.5" y1="666.8889"
      /><line y2="440.7778" style="fill:none;" x1="1131.5" x2="317.5" y1="440.7778"
      /><line y2="214.6667" style="fill:none;" x1="1131.5" x2="317.5" y1="214.6667"
      /><line x1="317.5" x2="1131.5" y1="893" style="stroke-linecap:square; fill-opacity:1; fill:none; stroke-opacity:1;" y2="893"
      /><line x1="317.5" x2="1131.5" y1="79" style="stroke-linecap:square; fill-opacity:1; fill:none; stroke-opacity:1;" y2="79"
      /><line x1="485.0882" x2="485.0882" y1="893" style="stroke-linecap:square; fill-opacity:1; fill:none; stroke-opacity:1;" y2="884.86"
      /><line x1="724.5" x2="724.5" y1="893" style="stroke-linecap:square; fill-opacity:1; fill:none; stroke-opacity:1;" y2="884.86"
      /><line x1="963.9117" x2="963.9117" y1="893" style="stroke-linecap:square; fill-opacity:1; fill:none; stroke-opacity:1;" y2="884.86"
      /><line x1="485.0882" x2="485.0882" y1="79" style="stroke-linecap:square; fill-opacity:1; fill:none; stroke-opacity:1;" y2="87.14"
      /><line x1="724.5" x2="724.5" y1="79" style="stroke-linecap:square; fill-opacity:1; fill:none; stroke-opacity:1;" y2="87.14"
      /><line x1="963.9117" x2="963.9117" y1="79" style="stroke-linecap:square; fill-opacity:1; fill:none; stroke-opacity:1;" y2="87.14"
    /></g
    ><g transform="translate(485.0882,910.3333)" style="font-size:53.3333px; fill:rgb(38,38,38); text-rendering:geometricPrecision; color-rendering:optimizeQuality; image-rendering:optimizeQuality; stroke:rgb(38,38,38); color-interpolation:linearRGB;"
    ><path style="stroke:none;" d="M-20.5625 54 L-20.5625 16.0625 L-15.5312 16.0625 L-15.5312 54 L-20.5625 54 ZM-6.5943 54 L-6.5943 16.0625 L7.7182 16.0625 Q11.4838 16.0625 13.4838 16.4219 Q16.2807 16.8906 18.1713 18.1953 Q20.0619 19.5 21.2104 21.8594 Q22.3588 24.2188 22.3588 27.0312 Q22.3588 31.875 19.2807 35.2266 Q16.2025 38.5781 8.1557 38.5781 L-1.5787 38.5781 L-1.5787 54 L-6.5943 54 ZM-1.5787 34.0938 L8.2338 34.0938 Q13.0932 34.0938 15.14 32.2812 Q17.1869 30.4688 17.1869 27.1875 Q17.1869 24.8125 15.9838 23.1172 Q14.7807 21.4219 12.8119 20.875 Q11.5463 20.5312 8.1244 20.5312 L-1.5787 20.5312 L-1.5787 34.0938 Z"
    /></g
    ><g transform="translate(724.5,910.3333)" style="font-size:53.3333px; fill:rgb(38,38,38); text-rendering:geometricPrecision; color-rendering:optimizeQuality; image-rendering:optimizeQuality; stroke:rgb(38,38,38); color-interpolation:linearRGB;"
    ><path style="stroke:none;" d="M-26.2656 54 L-26.2656 20.5312 L-38.75 20.5312 L-38.75 16.0625 L-8.6875 16.0625 L-8.6875 20.5312 L-21.2344 20.5312 L-21.2344 54 L-26.2656 54 ZM-5.669 40.2656 Q-5.669 32.625 -1.4346 28.9531 Q2.1123 25.8906 7.206 25.8906 Q12.8779 25.8906 16.4795 29.6094 Q20.081 33.3281 20.081 39.875 Q20.081 45.1719 18.4873 48.2109 Q16.8935 51.25 13.8545 52.9375 Q10.8154 54.625 7.206 54.625 Q1.4404 54.625 -2.1143 50.9219 Q-5.669 47.2188 -5.669 40.2656 ZM-0.8877 40.2656 Q-0.8877 45.5312 1.417 48.1641 Q3.7216 50.7969 7.206 50.7969 Q10.6748 50.7969 12.9795 48.1562 Q15.2841 45.5156 15.2841 40.1094 Q15.2841 35 12.9716 32.375 Q10.6591 29.75 7.206 29.75 Q3.7216 29.75 1.417 32.3672 Q-0.8877 34.9844 -0.8877 40.2656 ZM25.6528 54 L25.6528 26.5156 L29.8559 26.5156 L29.8559 30.6875 Q31.4496 27.7656 32.809 26.8281 Q34.1684 25.8906 35.809 25.8906 Q38.1528 25.8906 40.5903 27.3906 L38.9809 31.7188 Q37.2778 30.7031 35.5746 30.7031 Q34.0434 30.7031 32.8246 31.625 Q31.6059 32.5469 31.0903 34.1719 Q30.309 36.6562 30.309 39.6094 L30.309 54 L25.6528 54 Z"
    /></g
    ><g transform="translate(963.9117,910.3333)" style="font-size:53.3333px; fill:rgb(38,38,38); text-rendering:geometricPrecision; color-rendering:optimizeQuality; image-rendering:optimizeQuality; stroke:rgb(38,38,38); color-interpolation:linearRGB;"
    ><path style="stroke:none;" d="M-35.5625 54 L-35.5625 16.0625 L-30.5312 16.0625 L-30.5312 54 L-35.5625 54 ZM0.9994 49.5156 L0.9994 54 L-24.0787 54 Q-24.1412 52.3125 -23.5475 50.7656 Q-22.5787 48.2031 -20.4693 45.7188 Q-18.36 43.2344 -14.3756 39.9688 Q-8.1881 34.9062 -6.0162 31.9375 Q-3.8443 28.9688 -3.8443 26.3281 Q-3.8443 23.5625 -5.8287 21.6641 Q-7.8131 19.7656 -10.985 19.7656 Q-14.36 19.7656 -16.3756 21.7812 Q-18.3912 23.7969 -18.4225 27.375 L-23.2037 26.875 Q-22.7193 21.5156 -19.5084 18.7109 Q-16.2975 15.9062 -10.8912 15.9062 Q-5.4225 15.9062 -2.2428 18.9375 Q0.9369 21.9688 0.9369 26.4375 Q0.9369 28.7188 0.0072 30.9141 Q-0.9225 33.1094 -3.0865 35.5469 Q-5.2506 37.9844 -10.2662 42.2188 Q-14.4537 45.75 -15.649 47 Q-16.8443 48.25 -17.61 49.5156 L0.9994 49.5156 ZM8.0555 54 L8.0555 16.0625 L22.368 16.0625 Q26.1337 16.0625 28.1337 16.4219 Q30.9305 16.8906 32.8212 18.1953 Q34.7118 19.5 35.8602 21.8594 Q37.0087 24.2188 37.0087 27.0312 Q37.0087 31.875 33.9305 35.2266 Q30.8524 38.5781 22.8055 38.5781 L13.0712 38.5781 L13.0712 54 L8.0555 54 ZM13.0712 34.0938 L22.8837 34.0938 Q27.743 34.0938 29.7899 32.2812 Q31.8368 30.4688 31.8368 27.1875 Q31.8368 24.8125 30.6337 23.1172 Q29.4305 21.4219 27.4618 20.875 Q26.1962 20.5312 22.7743 20.5312 L13.0712 20.5312 L13.0712 34.0938 Z"
    /></g
    ><g transform="translate(724.5004,979.6667)" style="font-size:58.6667px; fill:rgb(38,38,38); text-rendering:geometricPrecision; color-rendering:optimizeQuality; image-rendering:optimizeQuality; stroke:rgb(38,38,38); color-interpolation:linearRGB;"
    ><path style="stroke:none;" d="M-103.5 59 L-103.5 16.7656 L-97.7656 16.7656 L-75.5938 49.9219 L-75.5938 16.7656 L-70.2344 16.7656 L-70.2344 59 L-75.9688 59 L-98.1406 25.8125 L-98.1406 59 L-103.5 59 ZM-40.8122 49.1406 L-35.4528 49.8125 Q-36.7185 54.5 -40.1481 57.0938 Q-43.5778 59.6875 -48.906 59.6875 Q-55.6091 59.6875 -59.5466 55.5547 Q-63.4841 51.4219 -63.4841 43.9688 Q-63.4841 36.2344 -59.5075 31.9766 Q-55.531 27.7188 -49.1872 27.7188 Q-43.0466 27.7188 -39.1638 31.8906 Q-35.281 36.0625 -35.281 43.6406 Q-35.281 44.1094 -35.3122 45.0312 L-58.1247 45.0312 Q-57.8278 50.0625 -55.2653 52.7422 Q-52.7028 55.4219 -48.8747 55.4219 Q-46.0153 55.4219 -43.9997 53.9297 Q-41.9841 52.4375 -40.8122 49.1406 ZM-57.8278 40.7656 L-40.7497 40.7656 Q-41.0935 36.9062 -42.7028 34.9688 Q-45.1872 31.9844 -49.1403 31.9844 Q-52.7028 31.9844 -55.1403 34.375 Q-57.5778 36.7656 -57.8278 40.7656 ZM-17.7998 54.3594 L-17.0654 58.9375 Q-19.2529 59.4062 -20.9716 59.4062 Q-23.7998 59.4062 -25.3545 58.5078 Q-26.9091 57.6094 -27.542 56.1562 Q-28.1748 54.7031 -28.1748 50.0469 L-28.1748 32.4375 L-31.9873 32.4375 L-31.9873 28.4062 L-28.1748 28.4062 L-28.1748 20.8281 L-23.0185 17.7188 L-23.0185 28.4062 L-17.7998 28.4062 L-17.7998 32.4375 L-23.0185 32.4375 L-23.0185 50.3281 Q-23.0185 52.5469 -22.7451 53.1797 Q-22.4716 53.8125 -21.8545 54.1875 Q-21.2373 54.5625 -20.081 54.5625 Q-19.2216 54.5625 -17.7998 54.3594 ZM-7.1907 59 L-16.5501 28.4062 L-11.1907 28.4062 L-6.3157 46.0625 L-4.5032 52.6406 Q-4.3938 52.1406 -2.9251 46.3281 L1.9499 28.4062 L7.2781 28.4062 L11.8562 46.1562 L13.3874 52 L15.1374 46.0938 L20.3874 28.4062 L25.4187 28.4062 L15.8562 59 L10.4812 59 L5.6062 40.6719 L4.4187 35.4688 L-1.7688 59 L-7.1907 59 ZM27.5909 43.7031 Q27.5909 35.2031 32.3252 31.1094 Q36.2627 27.7188 41.9502 27.7188 Q48.2471 27.7188 52.2549 31.8516 Q56.2627 35.9844 56.2627 43.2656 Q56.2627 49.1719 54.4893 52.5625 Q52.7159 55.9531 49.333 57.8203 Q45.9502 59.6875 41.9502 59.6875 Q35.5127 59.6875 31.5518 55.5703 Q27.5909 51.4531 27.5909 43.7031 ZM32.919 43.7031 Q32.919 49.5781 35.4893 52.5 Q38.0596 55.4219 41.9502 55.4219 Q45.8096 55.4219 48.3721 52.4844 Q50.9346 49.5469 50.9346 43.5312 Q50.9346 37.8594 48.3565 34.9297 Q45.7784 32 41.9502 32 Q38.0596 32 35.4893 34.9141 Q32.919 37.8281 32.919 43.7031 ZM62.0877 59 L62.0877 28.4062 L66.7595 28.4062 L66.7595 33.0469 Q68.5408 29.7812 70.0564 28.75 Q71.572 27.7188 73.3845 27.7188 Q76.0095 27.7188 78.7127 29.3906 L76.9314 34.2031 Q75.0252 33.0781 73.1189 33.0781 Q71.4314 33.0781 70.072 34.1016 Q68.7127 35.125 68.1345 36.9375 Q67.2752 39.7031 67.2752 42.9844 L67.2752 59 L62.0877 59 ZM81.7144 59 L81.7144 16.7656 L86.9019 16.7656 L86.9019 40.8438 L99.1675 28.4062 L105.8863 28.4062 L94.1832 39.75 L107.0582 59 L100.6675 59 L90.5582 43.3594 L86.9019 46.875 L86.9019 59 L81.7144 59 Z"
    /></g
    ><g style="fill:rgb(38,38,38); text-rendering:geometricPrecision; image-rendering:optimizeQuality; color-rendering:optimizeQuality; stroke-linejoin:round; stroke:rgb(38,38,38); color-interpolation:linearRGB; stroke-width:1.6667;"
    ><line y2="79" style="fill:none;" x1="317.5" x2="317.5" y1="893"
      /><line y2="79" style="fill:none;" x1="1131.5" x2="1131.5" y1="893"
      /><line y2="893" style="fill:none;" x1="317.5" x2="325.64" y1="893"
      /><line y2="666.8889" style="fill:none;" x1="317.5" x2="325.64" y1="666.8889"
      /><line y2="440.7778" style="fill:none;" x1="317.5" x2="325.64" y1="440.7778"
      /><line y2="214.6667" style="fill:none;" x1="317.5" x2="325.64" y1="214.6667"
      /><line y2="893" style="fill:none;" x1="1131.5" x2="1123.36" y1="893"
      /><line y2="666.8889" style="fill:none;" x1="1131.5" x2="1123.36" y1="666.8889"
      /><line y2="440.7778" style="fill:none;" x1="1131.5" x2="1123.36" y1="440.7778"
      /><line y2="214.6667" style="fill:none;" x1="1131.5" x2="1123.36" y1="214.6667"
      /><line y2="836.4722" style="fill:none;" x1="317.5" x2="321.57" y1="836.4722"
      /><line y2="779.9445" style="fill:none;" x1="317.5" x2="321.57" y1="779.9445"
      /><line y2="723.4167" style="fill:none;" x1="317.5" x2="321.57" y1="723.4167"
      /><line y2="610.3611" style="fill:none;" x1="317.5" x2="321.57" y1="610.3611"
      /><line y2="553.8333" style="fill:none;" x1="317.5" x2="321.57" y1="553.8333"
      /><line y2="497.3055" style="fill:none;" x1="317.5" x2="321.57" y1="497.3055"
      /><line y2="384.25" style="fill:none;" x1="317.5" x2="321.57" y1="384.25"
      /><line y2="327.7222" style="fill:none;" x1="317.5" x2="321.57" y1="327.7222"
      /><line y2="271.1945" style="fill:none;" x1="317.5" x2="321.57" y1="271.1945"
      /><line y2="158.1389" style="fill:none;" x1="317.5" x2="321.57" y1="158.1389"
      /><line y2="101.6111" style="fill:none;" x1="317.5" x2="321.57" y1="101.6111"
      /><line y2="836.4722" style="fill:none;" x1="1131.5" x2="1127.4301" y1="836.4722"
      /><line y2="779.9445" style="fill:none;" x1="1131.5" x2="1127.4301" y1="779.9445"
      /><line y2="723.4167" style="fill:none;" x1="1131.5" x2="1127.4301" y1="723.4167"
      /><line y2="610.3611" style="fill:none;" x1="1131.5" x2="1127.4301" y1="610.3611"
      /><line y2="553.8333" style="fill:none;" x1="1131.5" x2="1127.4301" y1="553.8333"
      /><line y2="497.3055" style="fill:none;" x1="1131.5" x2="1127.4301" y1="497.3055"
      /><line y2="384.25" style="fill:none;" x1="1131.5" x2="1127.4301" y1="384.25"
      /><line y2="327.7222" style="fill:none;" x1="1131.5" x2="1127.4301" y1="327.7222"
      /><line y2="271.1945" style="fill:none;" x1="1131.5" x2="1127.4301" y1="271.1945"
      /><line y2="158.1389" style="fill:none;" x1="1131.5" x2="1127.4301" y1="158.1389"
      /><line y2="101.6111" style="fill:none;" x1="1131.5" x2="1127.4301" y1="101.6111"
    /></g
    ><g transform="translate(300.1667,893)" style="font-size:53.3333px; fill:rgb(38,38,38); text-rendering:geometricPrecision; color-rendering:optimizeQuality; image-rendering:optimizeQuality; stroke:rgb(38,38,38); color-interpolation:linearRGB;"
    ><path style="stroke:none;" d="M-27.7969 2.2969 Q-27.7969 -4.4375 -26.4141 -8.5391 Q-25.0312 -12.6406 -22.3047 -14.8672 Q-19.5781 -17.0938 -15.4375 -17.0938 Q-12.375 -17.0938 -10.0703 -15.8672 Q-7.7656 -14.6406 -6.2656 -12.3203 Q-4.7656 -10 -3.9141 -6.6797 Q-3.0625 -3.3594 -3.0625 2.2969 Q-3.0625 8.9688 -4.4297 13.0703 Q-5.7969 17.1719 -8.5312 19.4062 Q-11.2656 21.6406 -15.4375 21.6406 Q-20.9219 21.6406 -24.0469 17.7188 Q-27.7969 12.9844 -27.7969 2.2969 ZM-23.0156 2.2969 Q-23.0156 11.625 -20.8281 14.7188 Q-18.6406 17.8125 -15.4375 17.8125 Q-12.2188 17.8125 -10.0312 14.7109 Q-7.8438 11.6094 -7.8438 2.2969 Q-7.8438 -7.0781 -10.0312 -10.1562 Q-12.2188 -13.2344 -15.4844 -13.2344 Q-18.6875 -13.2344 -20.6094 -10.5156 Q-23.0156 -7.0469 -23.0156 2.2969 Z"
    /></g
    ><g transform="translate(300.1667,666.8889)" style="font-size:53.3333px; fill:rgb(38,38,38); text-rendering:geometricPrecision; color-rendering:optimizeQuality; image-rendering:optimizeQuality; stroke:rgb(38,38,38); color-interpolation:linearRGB;"
    ><path style="stroke:none;" d="M-3.3125 16.5156 L-3.3125 21 L-28.3906 21 Q-28.4531 19.3125 -27.8594 17.7656 Q-26.8906 15.2031 -24.7812 12.7188 Q-22.6719 10.2344 -18.6875 6.9688 Q-12.5 1.9062 -10.3281 -1.0625 Q-8.1562 -4.0312 -8.1562 -6.6719 Q-8.1562 -9.4375 -10.1406 -11.3359 Q-12.125 -13.2344 -15.2969 -13.2344 Q-18.6719 -13.2344 -20.6875 -11.2188 Q-22.7031 -9.2031 -22.7344 -5.625 L-27.5156 -6.125 Q-27.0312 -11.4844 -23.8203 -14.2891 Q-20.6094 -17.0938 -15.2031 -17.0938 Q-9.7344 -17.0938 -6.5547 -14.0625 Q-3.375 -11.0312 -3.375 -6.5625 Q-3.375 -4.2812 -4.3047 -2.0859 Q-5.2344 0.1094 -7.3984 2.5469 Q-9.5625 4.9844 -14.5781 9.2188 Q-18.7656 12.75 -19.9609 14 Q-21.1562 15.25 -21.9219 16.5156 L-3.3125 16.5156 Z"
    /></g
    ><g transform="translate(300.1667,440.7778)" style="font-size:53.3333px; fill:rgb(38,38,38); text-rendering:geometricPrecision; color-rendering:optimizeQuality; image-rendering:optimizeQuality; stroke:rgb(38,38,38); color-interpolation:linearRGB;"
    ><path style="stroke:none;" d="M-12.875 21 L-12.875 11.9219 L-29.3281 11.9219 L-29.3281 7.6406 L-12.0156 -16.9375 L-8.2031 -16.9375 L-8.2031 7.6406 L-3.0781 7.6406 L-3.0781 11.9219 L-8.2031 11.9219 L-8.2031 21 L-12.875 21 ZM-12.875 7.6406 L-12.875 -9.4531 L-24.75 7.6406 L-12.875 7.6406 Z"
    /></g
    ><g transform="translate(300.1667,214.6667)" style="font-size:53.3333px; fill:rgb(38,38,38); text-rendering:geometricPrecision; color-rendering:optimizeQuality; image-rendering:optimizeQuality; stroke:rgb(38,38,38); color-interpolation:linearRGB;"
    ><path style="stroke:none;" d="M-3.625 -7.6406 L-8.2656 -7.2812 Q-8.875 -10.0312 -10.0156 -11.2656 Q-11.9062 -13.2656 -14.6719 -13.2656 Q-16.9062 -13.2656 -18.5938 -12.0156 Q-20.7812 -10.4219 -22.0547 -7.3438 Q-23.3281 -4.2656 -23.375 1.4375 Q-21.6875 -1.125 -19.2578 -2.3672 Q-16.8281 -3.6094 -14.1562 -3.6094 Q-9.5 -3.6094 -6.2266 -0.1797 Q-2.9531 3.25 -2.9531 8.6875 Q-2.9531 12.25 -4.4922 15.3203 Q-6.0312 18.3906 -8.7266 20.0156 Q-11.4219 21.6406 -14.8281 21.6406 Q-20.6562 21.6406 -24.3281 17.3594 Q-28 13.0781 -28 3.25 Q-28 -7.75 -23.9375 -12.75 Q-20.4062 -17.0938 -14.3906 -17.0938 Q-9.9219 -17.0938 -7.0625 -14.5859 Q-4.2031 -12.0781 -3.625 -7.6406 ZM-22.6562 8.7031 Q-22.6562 11.1094 -21.6328 13.3125 Q-20.6094 15.5156 -18.7734 16.6641 Q-16.9375 17.8125 -14.9062 17.8125 Q-11.9688 17.8125 -9.8438 15.4375 Q-7.7188 13.0625 -7.7188 8.9688 Q-7.7188 5.0312 -9.8125 2.7656 Q-11.9062 0.5 -15.0938 0.5 Q-18.25 0.5 -20.4531 2.7656 Q-22.6562 5.0312 -22.6562 8.7031 Z"
    /></g
    ><g transform="translate(260.1667,485.9996) rotate(-90)" style="font-size:58.6667px; fill:rgb(38,38,38); text-rendering:geometricPrecision; color-rendering:optimizeQuality; image-rendering:optimizeQuality; stroke:rgb(38,38,38); color-interpolation:linearRGB;"
    ><path style="stroke:none;" d="M-74.3438 -26.5625 L-69.0781 -27.0312 Q-68.7031 -23.8594 -67.3359 -21.8281 Q-65.9688 -19.7969 -63.0859 -18.5469 Q-60.2031 -17.2969 -56.6094 -17.2969 Q-53.4062 -17.2969 -50.9609 -18.2422 Q-48.5156 -19.1875 -47.3125 -20.8438 Q-46.1094 -22.5 -46.1094 -24.4688 Q-46.1094 -26.4531 -47.2656 -27.9375 Q-48.4219 -29.4219 -51.0781 -30.4219 Q-52.7656 -31.0938 -58.5859 -32.4922 Q-64.4062 -33.8906 -66.75 -35.125 Q-69.7656 -36.7031 -71.25 -39.0547 Q-72.7344 -41.4062 -72.7344 -44.3125 Q-72.7344 -47.5156 -70.9219 -50.2969 Q-69.1094 -53.0781 -65.625 -54.5156 Q-62.1406 -55.9531 -57.875 -55.9531 Q-53.1719 -55.9531 -49.5859 -54.4375 Q-46 -52.9219 -44.0703 -49.9844 Q-42.1406 -47.0469 -42 -43.3281 L-47.3594 -42.9375 Q-47.7812 -46.9375 -50.2734 -48.9844 Q-52.7656 -51.0312 -57.6406 -51.0312 Q-62.7031 -51.0312 -65.0234 -49.1719 Q-67.3438 -47.3125 -67.3438 -44.6875 Q-67.3438 -42.4062 -65.7031 -40.9375 Q-64.0938 -39.4688 -57.2812 -37.9297 Q-50.4688 -36.3906 -47.9375 -35.2344 Q-44.25 -33.5469 -42.4922 -30.9375 Q-40.7344 -28.3281 -40.7344 -24.9219 Q-40.7344 -21.5625 -42.6641 -18.5781 Q-44.5938 -15.5938 -48.2109 -13.9375 Q-51.8281 -12.2812 -56.3438 -12.2812 Q-62.0781 -12.2812 -65.9531 -13.9531 Q-69.8281 -15.625 -72.0312 -18.9766 Q-74.2344 -22.3281 -74.3438 -26.5625 ZM-14.0174 -24.2031 L-8.9236 -23.5469 Q-9.7517 -18.2656 -13.1971 -15.2891 Q-16.6424 -12.3125 -21.658 -12.3125 Q-27.9392 -12.3125 -31.7517 -16.4141 Q-35.5642 -20.5156 -35.5642 -28.1875 Q-35.5642 -33.1406 -33.9236 -36.8516 Q-32.283 -40.5625 -28.9314 -42.4219 Q-25.5799 -44.2812 -21.6267 -44.2812 Q-16.6424 -44.2812 -13.4783 -41.7656 Q-10.3142 -39.25 -9.408 -34.6094 L-14.4549 -33.8281 Q-15.1736 -36.9062 -17.0017 -38.4609 Q-18.8299 -40.0156 -21.4236 -40.0156 Q-25.3455 -40.0156 -27.7908 -37.2109 Q-30.2361 -34.4062 -30.2361 -28.3281 Q-30.2361 -22.1562 -27.8767 -19.3672 Q-25.5174 -16.5781 -21.7205 -16.5781 Q-18.658 -16.5781 -16.6111 -18.4453 Q-14.5642 -20.3125 -14.0174 -24.2031 ZM-6.5955 -28.2969 Q-6.5955 -36.7969 -1.8611 -40.8906 Q2.0764 -44.2812 7.7639 -44.2812 Q14.0608 -44.2812 18.0686 -40.1484 Q22.0764 -36.0156 22.0764 -28.7344 Q22.0764 -22.8281 20.3029 -19.4375 Q18.5295 -16.0469 15.1467 -14.1797 Q11.7639 -12.3125 7.7639 -12.3125 Q1.3264 -12.3125 -2.6346 -16.4297 Q-6.5955 -20.5469 -6.5955 -28.2969 ZM-1.2674 -28.2969 Q-1.2674 -22.4219 1.3029 -19.5 Q3.8733 -16.5781 7.7639 -16.5781 Q11.6233 -16.5781 14.1858 -19.5156 Q16.7483 -22.4531 16.7483 -28.4688 Q16.7483 -34.1406 14.1701 -37.0703 Q11.592 -40 7.7639 -40 Q3.8733 -40 1.3029 -37.0859 Q-1.2674 -34.1719 -1.2674 -28.2969 ZM27.9013 -13 L27.9013 -43.5938 L32.5732 -43.5938 L32.5732 -38.9531 Q34.3544 -42.2188 35.8701 -43.25 Q37.3857 -44.2812 39.1982 -44.2812 Q41.8232 -44.2812 44.5263 -42.6094 L42.7451 -37.7969 Q40.8388 -38.9219 38.9326 -38.9219 Q37.2451 -38.9219 35.8857 -37.8984 Q34.5263 -36.875 33.9482 -35.0625 Q33.0888 -32.2969 33.0888 -29.0156 L33.0888 -13 L27.9013 -13 ZM68.4343 -22.8594 L73.7937 -22.1875 Q72.5281 -17.5 69.0984 -14.9062 Q65.6687 -12.3125 60.3406 -12.3125 Q53.6374 -12.3125 49.6999 -16.4453 Q45.7624 -20.5781 45.7624 -28.0312 Q45.7624 -35.7656 49.739 -40.0234 Q53.7156 -44.2812 60.0593 -44.2812 Q66.1999 -44.2812 70.0827 -40.1094 Q73.9656 -35.9375 73.9656 -28.3594 Q73.9656 -27.8906 73.9343 -26.9688 L51.1218 -26.9688 Q51.4187 -21.9375 53.9812 -19.2578 Q56.5437 -16.5781 60.3718 -16.5781 Q63.2312 -16.5781 65.2468 -18.0703 Q67.2624 -19.5625 68.4343 -22.8594 ZM51.4187 -31.2344 L68.4968 -31.2344 Q68.1531 -35.0938 66.5437 -37.0312 Q64.0593 -40.0156 60.1062 -40.0156 Q56.5437 -40.0156 54.1062 -37.625 Q51.6687 -35.2344 51.4187 -31.2344 Z"
    /></g
    ><g style="stroke-linecap:butt; fill:rgb(38,38,38); text-rendering:geometricPrecision; image-rendering:optimizeQuality; color-rendering:optimizeQuality; stroke-linejoin:round; stroke:rgb(38,38,38); color-interpolation:linearRGB; stroke-width:1.6667;"
    ><line y2="893" style="fill:none;" x1="317.5" x2="1131.5" y1="893"
    /></g
    ><g style="fill:white; text-rendering:optimizeSpeed; color-rendering:optimizeSpeed; image-rendering:optimizeSpeed; shape-rendering:crispEdges; stroke:white; color-interpolation:sRGB;"
    ><path style="stroke:none;" d="M580.8529 893 L580.8529 191.3244 L389.3235 191.3244 L389.3235 893 Z"
    /></g
    ><g style="text-rendering:geometricPrecision; stroke-width:1.6667; color-interpolation:linearRGB; color-rendering:optimizeQuality; stroke-linecap:butt; image-rendering:optimizeQuality;"
    ><path d="M389.3235 893 L389.3235 191.3244 L580.8529 191.3244 L580.8529 893 Z" style="fill:none; fill-rule:evenodd;"
      /><line x1="562.2482" x2="580.8529" y1="893" style="fill:none; stroke-linejoin:round; stroke:rgb(140,190,178);" y2="877.0262"
      /><line x1="543.6263" x2="580.8529" y1="893" style="fill:none; stroke-linejoin:round; stroke:rgb(140,190,178);" y2="861.0377"
      /><line x1="525.0045" x2="580.8529" y1="893" style="fill:none; stroke-linejoin:round; stroke:rgb(140,190,178);" y2="845.0493"
      /><line x1="506.3826" x2="580.8529" y1="893" style="fill:none; stroke-linejoin:round; stroke:rgb(140,190,178);" y2="829.0608"
      /><line x1="487.7607" x2="580.8529" y1="893" style="fill:none; stroke-linejoin:round; stroke:rgb(140,190,178);" y2="813.0723"
      /><line x1="469.1388" x2="580.8529" y1="893" style="fill:none; stroke-linejoin:round; stroke:rgb(140,190,178);" y2="797.0839"
      /><line x1="450.517" x2="580.8529" y1="893" style="fill:none; stroke-linejoin:round; stroke:rgb(140,190,178);" y2="781.0954"
      /><line x1="431.8951" x2="580.853" y1="893" style="fill:none; stroke-linejoin:round; stroke:rgb(140,190,178);" y2="765.1069"
      /><line x1="413.2733" x2="580.8529" y1="893" style="fill:none; stroke-linejoin:round; stroke:rgb(140,190,178);" y2="749.1185"
      /><line x1="394.6514" x2="580.8529" y1="893" style="fill:none; stroke-linejoin:round; stroke:rgb(140,190,178);" y2="733.13"
      /><line x1="389.3235" x2="580.8529" y1="881.5859" style="fill:none; stroke-linejoin:round; stroke:rgb(140,190,178);" y2="717.1415"
      /><line x1="389.3235" x2="580.8529" y1="865.5975" style="fill:none; stroke-linejoin:round; stroke:rgb(140,190,178);" y2="701.1531"
      /><line x1="389.3235" x2="580.8529" y1="849.609" style="fill:none; stroke-linejoin:round; stroke:rgb(140,190,178);" y2="685.1646"
      /><line x1="389.3235" x2="580.8529" y1="833.6205" style="fill:none; stroke-linejoin:round; stroke:rgb(140,190,178);" y2="669.1761"
      /><line x1="389.3235" x2="580.8529" y1="817.6321" style="fill:none; stroke-linejoin:round; stroke:rgb(140,190,178);" y2="653.1876"
      /><line x1="389.3235" x2="580.8529" y1="801.6436" style="fill:none; stroke-linejoin:round; stroke:rgb(140,190,178);" y2="637.1992"
      /><line x1="389.3235" x2="580.8529" y1="785.6552" style="fill:none; stroke-linejoin:round; stroke:rgb(140,190,178);" y2="621.2107"
      /><line x1="389.3235" x2="580.8529" y1="769.6666" style="fill:none; stroke-linejoin:round; stroke:rgb(140,190,178);" y2="605.2222"
      /><line x1="389.3235" x2="580.8529" y1="753.6782" style="fill:none; stroke-linejoin:round; stroke:rgb(140,190,178);" y2="589.2338"
      /><line x1="389.3235" x2="580.8529" y1="737.6897" style="fill:none; stroke-linejoin:round; stroke:rgb(140,190,178);" y2="573.2453"
      /><line x1="389.3235" x2="580.8529" y1="721.7012" style="fill:none; stroke-linejoin:round; stroke:rgb(140,190,178);" y2="557.2568"
      /><line x1="389.3235" x2="580.8529" y1="705.7128" style="fill:none; stroke-linejoin:round; stroke:rgb(140,190,178);" y2="541.2684"
      /><line x1="389.3235" x2="580.8529" y1="689.7243" style="fill:none; stroke-linejoin:round; stroke:rgb(140,190,178);" y2="525.2799"
      /><line x1="389.3235" x2="580.8529" y1="673.7358" style="fill:none; stroke-linejoin:round; stroke:rgb(140,190,178);" y2="509.2914"
      /><line x1="389.3236" x2="580.8529" y1="657.7473" style="fill:none; stroke-linejoin:round; stroke:rgb(140,190,178);" y2="493.3029"
      /><line x1="389.3235" x2="580.8529" y1="641.7589" style="fill:none; stroke-linejoin:round; stroke:rgb(140,190,178);" y2="477.3145"
      /><line x1="389.3235" x2="580.8529" y1="625.7704" style="fill:none; stroke-linejoin:round; stroke:rgb(140,190,178);" y2="461.326"
      /><line x1="389.3236" x2="580.8529" y1="609.7819" style="fill:none; stroke-linejoin:round; stroke:rgb(140,190,178);" y2="445.3375"
      /><line x1="389.3236" x2="580.8529" y1="593.7935" style="fill:none; stroke-linejoin:round; stroke:rgb(140,190,178);" y2="429.3491"
      /><line x1="389.3235" x2="580.8529" y1="577.805" style="fill:none; stroke-linejoin:round; stroke:rgb(140,190,178);" y2="413.3606"
      /><line x1="389.3236" x2="580.8529" y1="561.8165" style="fill:none; stroke-linejoin:round; stroke:rgb(140,190,178);" y2="397.3721"
      /><line x1="389.3236" x2="580.8529" y1="545.8281" style="fill:none; stroke-linejoin:round; stroke:rgb(140,190,178);" y2="381.3837"
      /><line x1="389.3235" x2="580.8529" y1="529.8396" style="fill:none; stroke-linejoin:round; stroke:rgb(140,190,178);" y2="365.3952"
      /><line x1="389.3236" x2="580.8529" y1="513.8511" style="fill:none; stroke-linejoin:round; stroke:rgb(140,190,178);" y2="349.4067"
      /><line x1="389.3236" x2="580.8529" y1="497.8626" style="fill:none; stroke-linejoin:round; stroke:rgb(140,190,178);" y2="333.4182"
      /><line x1="389.3236" x2="580.8529" y1="481.8741" style="fill:none; stroke-linejoin:round; stroke:rgb(140,190,178);" y2="317.4297"
      /><line x1="389.3236" x2="580.853" y1="465.8857" style="fill:none; stroke-linejoin:round; stroke:rgb(140,190,178);" y2="301.4413"
      /><line x1="389.3236" x2="580.8529" y1="449.8972" style="fill:none; stroke-linejoin:round; stroke:rgb(140,190,178);" y2="285.4529"
      /><line x1="389.3236" x2="580.853" y1="433.9088" style="fill:none; stroke-linejoin:round; stroke:rgb(140,190,178);" y2="269.4643"
      /><line x1="389.3236" x2="580.8529" y1="417.9203" style="fill:none; stroke-linejoin:round; stroke:rgb(140,190,178);" y2="253.4759"
      /><line x1="389.3235" x2="580.8529" y1="401.9318" style="fill:none; stroke-linejoin:round; stroke:rgb(140,190,178);" y2="237.4874"
      /><line x1="389.3235" x2="580.8529" y1="385.9433" style="fill:none; stroke-linejoin:round; stroke:rgb(140,190,178);" y2="221.4989"
      /><line x1="389.3236" x2="580.8529" y1="369.9549" style="fill:none; stroke-linejoin:round; stroke:rgb(140,190,178);" y2="205.5105"
      /><line x1="389.3236" x2="578.7537" y1="353.9664" style="fill:none; stroke-linejoin:round; stroke:rgb(140,190,178);" y2="191.3244"
      /><line x1="389.3236" x2="560.1318" y1="337.978" style="fill:none; stroke-linejoin:round; stroke:rgb(140,190,178);" y2="191.3244"
      /><line x1="389.3236" x2="541.5099" y1="321.9894" style="fill:none; stroke-linejoin:round; stroke:rgb(140,190,178);" y2="191.3244"
      /><line x1="389.3236" x2="522.8881" y1="306.001" style="fill:none; stroke-linejoin:round; stroke:rgb(140,190,178);" y2="191.3244"
      /><line x1="389.3236" x2="504.2662" y1="290.0125" style="fill:none; stroke-linejoin:round; stroke:rgb(140,190,178);" y2="191.3244"
      /><line x1="389.3236" x2="485.6444" y1="274.0241" style="fill:none; stroke-linejoin:round; stroke:rgb(140,190,178);" y2="191.3244"
      /><line x1="389.3236" x2="467.0226" y1="258.0356" style="fill:none; stroke-linejoin:round; stroke:rgb(140,190,178);" y2="191.3244"
      /><line x1="389.3236" x2="448.4006" y1="242.0471" style="fill:none; stroke-linejoin:round; stroke:rgb(140,190,178);" y2="191.3244"
      /><line x1="389.3235" x2="429.7788" y1="226.0587" style="fill:none; stroke-linejoin:round; stroke:rgb(140,190,178);" y2="191.3244"
      /><line x1="389.3236" x2="411.1569" y1="210.0702" style="fill:none; stroke-linejoin:round; stroke:rgb(140,190,178);" y2="191.3244"
      /><line x1="389.3236" x2="392.5351" y1="194.0817" style="fill:none; stroke-linejoin:round; stroke:rgb(140,190,178);" y2="191.3244"
    /></g
    ><g style="fill:white; text-rendering:optimizeSpeed; color-rendering:optimizeSpeed; image-rendering:optimizeSpeed; shape-rendering:crispEdges; stroke:white; color-interpolation:sRGB;"
    ><path style="stroke:none;" d="M820.2647 893 L820.2647 426.9495 L628.7353 426.9495 L628.7353 893 Z"
    /></g
    ><g style="text-rendering:geometricPrecision; stroke-width:1.6667; color-interpolation:linearRGB; color-rendering:optimizeQuality; stroke-linecap:butt; image-rendering:optimizeQuality;"
    ><path d="M628.7353 893 L628.7353 426.9495 L820.2647 426.9495 L820.2647 893 Z" style="fill:none; fill-rule:evenodd;"
      /><line x1="804.3324" x2="820.2647" y1="893" style="fill:none; stroke-linejoin:round; stroke:rgb(240,96,96);" y2="879.3207"
      /><line x1="785.7105" x2="820.2647" y1="893" style="fill:none; stroke-linejoin:round; stroke:rgb(240,96,96);" y2="863.3323"
      /><line x1="767.0887" x2="820.2647" y1="893" style="fill:none; stroke-linejoin:round; stroke:rgb(240,96,96);" y2="847.3438"
      /><line x1="748.4668" x2="820.2647" y1="893" style="fill:none; stroke-linejoin:round; stroke:rgb(240,96,96);" y2="831.3553"
      /><line x1="729.8449" x2="820.2646" y1="893" style="fill:none; stroke-linejoin:round; stroke:rgb(240,96,96);" y2="815.3669"
      /><line x1="711.2231" x2="820.2647" y1="893" style="fill:none; stroke-linejoin:round; stroke:rgb(240,96,96);" y2="799.3784"
      /><line x1="692.6013" x2="820.2647" y1="893" style="fill:none; stroke-linejoin:round; stroke:rgb(240,96,96);" y2="783.39"
      /><line x1="673.9794" x2="820.2647" y1="893" style="fill:none; stroke-linejoin:round; stroke:rgb(240,96,96);" y2="767.4014"
      /><line x1="655.3575" x2="820.2647" y1="893" style="fill:none; stroke-linejoin:round; stroke:rgb(240,96,96);" y2="751.413"
      /><line x1="636.7357" x2="820.2647" y1="893" style="fill:none; stroke-linejoin:round; stroke:rgb(240,96,96);" y2="735.4245"
      /><line x1="628.7353" x2="820.2647" y1="883.8805" style="fill:none; stroke-linejoin:round; stroke:rgb(240,96,96);" y2="719.436"
      /><line x1="628.7353" x2="820.2647" y1="867.892" style="fill:none; stroke-linejoin:round; stroke:rgb(240,96,96);" y2="703.4476"
      /><line x1="628.7353" x2="820.2647" y1="851.9036" style="fill:none; stroke-linejoin:round; stroke:rgb(240,96,96);" y2="687.4591"
      /><line x1="628.7353" x2="820.2647" y1="835.9151" style="fill:none; stroke-linejoin:round; stroke:rgb(240,96,96);" y2="671.4706"
      /><line x1="628.7353" x2="820.2647" y1="819.9266" style="fill:none; stroke-linejoin:round; stroke:rgb(240,96,96);" y2="655.4822"
      /><line x1="628.7353" x2="820.2647" y1="803.9382" style="fill:none; stroke-linejoin:round; stroke:rgb(240,96,96);" y2="639.4937"
      /><line x1="628.7353" x2="820.2647" y1="787.9497" style="fill:none; stroke-linejoin:round; stroke:rgb(240,96,96);" y2="623.5052"
      /><line x1="628.7353" x2="820.2646" y1="771.9612" style="fill:none; stroke-linejoin:round; stroke:rgb(240,96,96);" y2="607.5168"
      /><line x1="628.7353" x2="820.2647" y1="755.9727" style="fill:none; stroke-linejoin:round; stroke:rgb(240,96,96);" y2="591.5283"
      /><line x1="628.7353" x2="820.2647" y1="739.9843" style="fill:none; stroke-linejoin:round; stroke:rgb(240,96,96);" y2="575.5399"
      /><line x1="628.7353" x2="820.2647" y1="723.9958" style="fill:none; stroke-linejoin:round; stroke:rgb(240,96,96);" y2="559.5514"
      /><line x1="628.7353" x2="820.2647" y1="708.0073" style="fill:none; stroke-linejoin:round; stroke:rgb(240,96,96);" y2="543.5629"
      /><line x1="628.7353" x2="820.2647" y1="692.0189" style="fill:none; stroke-linejoin:round; stroke:rgb(240,96,96);" y2="527.5744"
      /><line x1="628.7353" x2="820.2647" y1="676.0304" style="fill:none; stroke-linejoin:round; stroke:rgb(240,96,96);" y2="511.5859"
      /><line x1="628.7353" x2="820.2647" y1="660.0419" style="fill:none; stroke-linejoin:round; stroke:rgb(240,96,96);" y2="495.5974"
      /><line x1="628.7353" x2="820.2647" y1="644.0535" style="fill:none; stroke-linejoin:round; stroke:rgb(240,96,96);" y2="479.609"
      /><line x1="628.7353" x2="820.2647" y1="628.065" style="fill:none; stroke-linejoin:round; stroke:rgb(240,96,96);" y2="463.6205"
      /><line x1="628.7353" x2="820.2647" y1="612.0765" style="fill:none; stroke-linejoin:round; stroke:rgb(240,96,96);" y2="447.632"
      /><line x1="628.7353" x2="820.2647" y1="596.0881" style="fill:none; stroke-linejoin:round; stroke:rgb(240,96,96);" y2="431.6436"
      /><line x1="628.7353" x2="807.11" y1="580.0996" style="fill:none; stroke-linejoin:round; stroke:rgb(240,96,96);" y2="426.9496"
      /><line x1="628.7353" x2="788.4882" y1="564.1111" style="fill:none; stroke-linejoin:round; stroke:rgb(240,96,96);" y2="426.9496"
      /><line x1="628.7353" x2="769.8664" y1="548.1226" style="fill:none; stroke-linejoin:round; stroke:rgb(240,96,96);" y2="426.9495"
      /><line x1="628.7353" x2="751.2445" y1="532.1342" style="fill:none; stroke-linejoin:round; stroke:rgb(240,96,96);" y2="426.9495"
      /><line x1="628.7353" x2="732.6226" y1="516.1457" style="fill:none; stroke-linejoin:round; stroke:rgb(240,96,96);" y2="426.9496"
      /><line x1="628.7353" x2="714.0007" y1="500.1572" style="fill:none; stroke-linejoin:round; stroke:rgb(240,96,96);" y2="426.9496"
      /><line x1="628.7353" x2="695.3789" y1="484.1688" style="fill:none; stroke-linejoin:round; stroke:rgb(240,96,96);" y2="426.9495"
      /><line x1="628.7353" x2="676.757" y1="468.1803" style="fill:none; stroke-linejoin:round; stroke:rgb(240,96,96);" y2="426.9496"
      /><line x1="628.7352" x2="658.1351" y1="452.1918" style="fill:none; stroke-linejoin:round; stroke:rgb(240,96,96);" y2="426.9495"
      /><line x1="628.7353" x2="639.5133" y1="436.2034" style="fill:none; stroke-linejoin:round; stroke:rgb(240,96,96);" y2="426.9496"
    /></g
    ><g style="fill:white; text-rendering:optimizeSpeed; color-rendering:optimizeSpeed; image-rendering:optimizeSpeed; shape-rendering:crispEdges; stroke:white; color-interpolation:sRGB;"
    ><path style="stroke:none;" d="M1059.6765 893 L1059.6765 800.257 L868.147 800.257 L868.147 893 Z"
    /></g
    ><g style="text-rendering:geometricPrecision; stroke-width:1.6667; color-interpolation:linearRGB; color-rendering:optimizeQuality; stroke-linecap:butt; image-rendering:optimizeQuality;"
    ><path d="M868.147 893 L868.147 800.257 L1059.6765 800.257 L1059.6765 893 Z" style="fill:none; fill-rule:evenodd;"
      /><line x1="1046.4167" x2="1059.6765" y1="893" style="fill:none; stroke-linejoin:round; stroke:rgb(243,181,98);" y2="881.6153"
      /><line x1="1027.7948" x2="1059.6765" y1="893" style="fill:none; stroke-linejoin:round; stroke:rgb(243,181,98);" y2="865.6268"
      /><line x1="1009.1729" x2="1059.6765" y1="893" style="fill:none; stroke-linejoin:round; stroke:rgb(243,181,98);" y2="849.6383"
      /><line x1="990.551" x2="1059.6765" y1="893" style="fill:none; stroke-linejoin:round; stroke:rgb(243,181,98);" y2="833.6498"
      /><line x1="971.9292" x2="1059.6765" y1="893" style="fill:none; stroke-linejoin:round; stroke:rgb(243,181,98);" y2="817.6614"
      /><line x1="953.3074" x2="1059.6764" y1="893" style="fill:none; stroke-linejoin:round; stroke:rgb(243,181,98);" y2="801.673"
      /><line x1="934.6854" x2="1042.7037" y1="893" style="fill:none; stroke-linejoin:round; stroke:rgb(243,181,98);" y2="800.2571"
      /><line x1="916.0635" x2="1024.0818" y1="893" style="fill:none; stroke-linejoin:round; stroke:rgb(243,181,98);" y2="800.2571"
      /><line x1="897.4418" x2="1005.46" y1="893" style="fill:none; stroke-linejoin:round; stroke:rgb(243,181,98);" y2="800.2571"
      /><line x1="878.8199" x2="986.8381" y1="893" style="fill:none; stroke-linejoin:round; stroke:rgb(243,181,98);" y2="800.2571"
      /><line x1="868.147" x2="968.2162" y1="886.1751" style="fill:none; stroke-linejoin:round; stroke:rgb(243,181,98);" y2="800.257"
      /><line x1="868.147" x2="949.5944" y1="870.1866" style="fill:none; stroke-linejoin:round; stroke:rgb(243,181,98);" y2="800.2571"
      /><line x1="868.147" x2="930.9725" y1="854.1982" style="fill:none; stroke-linejoin:round; stroke:rgb(243,181,98);" y2="800.257"
      /><line x1="868.147" x2="912.3507" y1="838.2097" style="fill:none; stroke-linejoin:round; stroke:rgb(243,181,98);" y2="800.257"
      /><line x1="868.147" x2="893.7288" y1="822.2213" style="fill:none; stroke-linejoin:round; stroke:rgb(243,181,98);" y2="800.2571"
      /><line x1="868.147" x2="875.1069" y1="806.2327" style="fill:none; stroke-linejoin:round; stroke:rgb(243,181,98);" y2="800.2571"
    /></g
    ><g style="fill:rgb(140,190,178); text-rendering:optimizeSpeed; color-rendering:optimizeSpeed; image-rendering:optimizeSpeed; shape-rendering:crispEdges; stroke:rgb(140,190,178); color-interpolation:sRGB;"
    ><path style="stroke:none;" d="M580.8529 893 L580.8529 653.1852 L389.3235 653.1852 L389.3235 893 Z"
    /></g
    ><g style="text-rendering:geometricPrecision; stroke-width:1.6667; color-interpolation:linearRGB; color-rendering:optimizeQuality; stroke-linecap:butt; image-rendering:optimizeQuality;"
    ><path d="M389.3235 893 L389.3235 653.1852 L580.8529 653.1852 L580.8529 893 Z" style="fill:none; fill-rule:evenodd;"
    /></g
    ><g style="fill:rgb(240,96,96); text-rendering:optimizeSpeed; color-rendering:optimizeSpeed; image-rendering:optimizeSpeed; shape-rendering:crispEdges; stroke:rgb(240,96,96); color-interpolation:sRGB;"
    ><path style="stroke:none;" d="M820.2647 893 L820.2647 710.2839 L628.7353 710.2839 L628.7353 893 Z"
    /></g
    ><g style="text-rendering:geometricPrecision; stroke-width:1.6667; color-interpolation:linearRGB; color-rendering:optimizeQuality; stroke-linecap:butt; image-rendering:optimizeQuality;"
    ><path d="M628.7353 893 L628.7353 710.2839 L820.2647 710.2839 L820.2647 893 Z" style="fill:none; fill-rule:evenodd;"
      /><path d="M868.147 893 L868.147 893 L1059.6765 893 L1059.6765 893 Z" style="fill:none; fill-rule:evenodd;"
    /></g
    ><g transform="translate(485.0882,185.6717)" style="text-rendering:geometricPrecision; font-size:40px; color-interpolation:linearRGB; color-rendering:optimizeQuality; image-rendering:optimizeQuality;"
    ><path style="stroke:none;" d="M-30.5938 -30.625 L-34.0938 -30.3438 Q-34.5625 -32.4219 -35.4219 -33.3594 Q-36.8438 -34.8594 -38.9375 -34.8594 Q-40.6094 -34.8594 -41.8906 -33.9219 Q-43.5469 -32.7188 -44.5 -30.3906 Q-45.4531 -28.0625 -45.5 -23.7656 Q-44.2344 -25.7031 -42.3984 -26.6406 Q-40.5625 -27.5781 -38.5469 -27.5781 Q-35.0312 -27.5781 -32.5625 -24.9922 Q-30.0938 -22.4062 -30.0938 -18.2969 Q-30.0938 -15.6094 -31.25 -13.2891 Q-32.4062 -10.9688 -34.4375 -9.7422 Q-36.4688 -8.5156 -39.0469 -8.5156 Q-43.4531 -8.5156 -46.2266 -11.75 Q-49 -14.9844 -49 -22.4062 Q-49 -30.7031 -45.9219 -34.4688 Q-43.25 -37.75 -38.7188 -37.75 Q-35.3438 -37.75 -33.1875 -35.8594 Q-31.0312 -33.9688 -30.5938 -30.625 ZM-44.9531 -18.2812 Q-44.9531 -16.4688 -44.1797 -14.8047 Q-43.4062 -13.1406 -42.0234 -12.2734 Q-40.6406 -11.4062 -39.1094 -11.4062 Q-36.8906 -11.4062 -35.2891 -13.2031 Q-33.6875 -15 -33.6875 -18.0781 Q-33.6875 -21.0469 -35.2656 -22.7578 Q-36.8438 -24.4688 -39.25 -24.4688 Q-41.625 -24.4688 -43.2891 -22.7578 Q-44.9531 -21.0469 -44.9531 -18.2812 ZM-24.6133 -9 L-24.6133 -13 L-20.6133 -13 L-20.6133 -9 L-24.6133 -9 ZM3 -12.375 L3 -9 L-15.9219 -9 Q-15.9688 -10.2656 -15.5156 -11.4375 Q-14.7969 -13.375 -13.2031 -15.25 Q-11.6094 -17.125 -8.6094 -19.5938 Q-3.9375 -23.4219 -2.2969 -25.6562 Q-0.6562 -27.8906 -0.6562 -29.875 Q-0.6562 -31.9688 -2.1484 -33.4062 Q-3.6406 -34.8438 -6.0469 -34.8438 Q-8.5781 -34.8438 -10.1016 -33.3203 Q-11.625 -31.7969 -11.6562 -29.0938 L-15.2656 -29.4688 Q-14.8906 -33.5156 -12.4688 -35.6328 Q-10.0469 -37.75 -5.9688 -37.75 Q-1.8438 -37.75 0.5547 -35.4688 Q2.9531 -33.1875 2.9531 -29.7969 Q2.9531 -28.0781 2.25 -26.4219 Q1.5469 -24.7656 -0.0781 -22.9297 Q-1.7031 -21.0938 -5.5 -17.8906 Q-8.6562 -15.2344 -9.5547 -14.2891 Q-10.4531 -13.3438 -11.0469 -12.375 L3 -12.375 ZM6.7617 -23.125 Q6.7617 -28.2031 7.8086 -31.2969 Q8.8555 -34.3906 10.918 -36.0703 Q12.9805 -37.75 16.1055 -37.75 Q18.4023 -37.75 20.1445 -36.8203 Q21.8867 -35.8906 23.0195 -34.1484 Q24.1523 -32.4062 24.793 -29.8906 Q25.4336 -27.375 25.4336 -23.125 Q25.4336 -18.0781 24.4023 -14.9844 Q23.3711 -11.8906 21.3086 -10.2031 Q19.2461 -8.5156 16.1055 -8.5156 Q11.9648 -8.5156 9.6055 -11.4844 Q6.7617 -15.0625 6.7617 -23.125 ZM10.3867 -23.125 Q10.3867 -16.0781 12.0352 -13.7422 Q13.6836 -11.4062 16.1055 -11.4062 Q18.5273 -11.4062 20.1758 -13.75 Q21.8242 -16.0938 21.8242 -23.125 Q21.8242 -30.1875 20.1758 -32.5156 Q18.5273 -34.8438 16.0586 -34.8438 Q13.6367 -34.8438 12.1992 -32.7969 Q10.3867 -30.1719 10.3867 -23.125 ZM47.2578 -30.625 L43.7578 -30.3438 Q43.2891 -32.4219 42.4297 -33.3594 Q41.0078 -34.8594 38.9141 -34.8594 Q37.2422 -34.8594 35.9609 -33.9219 Q34.3047 -32.7188 33.3516 -30.3906 Q32.3984 -28.0625 32.3516 -23.7656 Q33.6172 -25.7031 35.4531 -26.6406 Q37.2891 -27.5781 39.3047 -27.5781 Q42.8203 -27.5781 45.2891 -24.9922 Q47.7578 -22.4062 47.7578 -18.2969 Q47.7578 -15.6094 46.6016 -13.2891 Q45.4453 -10.9688 43.4141 -9.7422 Q41.3828 -8.5156 38.8047 -8.5156 Q34.3984 -8.5156 31.625 -11.75 Q28.8516 -14.9844 28.8516 -22.4062 Q28.8516 -30.7031 31.9297 -34.4688 Q34.6016 -37.75 39.1328 -37.75 Q42.5078 -37.75 44.6641 -35.8594 Q46.8203 -33.9688 47.2578 -30.625 ZM32.8984 -18.2812 Q32.8984 -16.4688 33.6719 -14.8047 Q34.4453 -13.1406 35.8281 -12.2734 Q37.2109 -11.4062 38.7422 -11.4062 Q40.9609 -11.4062 42.5625 -13.2031 Q44.1641 -15 44.1641 -18.0781 Q44.1641 -21.0469 42.5859 -22.7578 Q41.0078 -24.4688 38.6016 -24.4688 Q36.2266 -24.4688 34.5625 -22.7578 Q32.8984 -21.0469 32.8984 -18.2812 Z"
    /></g
    ><g transform="translate(724.5,421.2968)" style="text-rendering:geometricPrecision; font-size:40px; color-interpolation:linearRGB; color-rendering:optimizeQuality; image-rendering:optimizeQuality;"
    ><path style="stroke:none;" d="M-37.5625 -9 L-37.5625 -15.8594 L-49.9844 -15.8594 L-49.9844 -19.0781 L-36.9219 -37.6406 L-34.0469 -37.6406 L-34.0469 -19.0781 L-30.1875 -19.0781 L-30.1875 -15.8594 L-34.0469 -15.8594 L-34.0469 -9 L-37.5625 -9 ZM-37.5625 -19.0781 L-37.5625 -31.9844 L-46.5312 -19.0781 L-37.5625 -19.0781 ZM-24.6133 -9 L-24.6133 -13 L-20.6133 -13 L-20.6133 -9 L-24.6133 -9 ZM-2.2344 -9 L-5.75 -9 L-5.75 -31.4062 Q-7.0156 -30.1875 -9.0781 -28.9766 Q-11.1406 -27.7656 -12.7812 -27.1719 L-12.7812 -30.5625 Q-9.8281 -31.9531 -7.625 -33.9219 Q-5.4219 -35.8906 -4.5 -37.75 L-2.2344 -37.75 L-2.2344 -9 ZM25.2461 -12.375 L25.2461 -9 L6.3242 -9 Q6.2773 -10.2656 6.7305 -11.4375 Q7.4492 -13.375 9.043 -15.25 Q10.6367 -17.125 13.6367 -19.5938 Q18.3086 -23.4219 19.9492 -25.6562 Q21.5898 -27.8906 21.5898 -29.875 Q21.5898 -31.9688 20.0977 -33.4062 Q18.6055 -34.8438 16.1992 -34.8438 Q13.668 -34.8438 12.1445 -33.3203 Q10.6211 -31.7969 10.5898 -29.0938 L6.9805 -29.4688 Q7.3555 -33.5156 9.7773 -35.6328 Q12.1992 -37.75 16.2773 -37.75 Q20.4023 -37.75 22.8008 -35.4688 Q25.1992 -33.1875 25.1992 -29.7969 Q25.1992 -28.0781 24.4961 -26.4219 Q23.793 -24.7656 22.168 -22.9297 Q20.543 -21.0938 16.7461 -17.8906 Q13.5898 -15.2344 12.6914 -14.2891 Q11.793 -13.3438 11.1992 -12.375 L25.2461 -12.375 ZM47.4922 -12.375 L47.4922 -9 L28.5703 -9 Q28.5234 -10.2656 28.9766 -11.4375 Q29.6953 -13.375 31.2891 -15.25 Q32.8828 -17.125 35.8828 -19.5938 Q40.5547 -23.4219 42.1953 -25.6562 Q43.8359 -27.8906 43.8359 -29.875 Q43.8359 -31.9688 42.3438 -33.4062 Q40.8516 -34.8438 38.4453 -34.8438 Q35.9141 -34.8438 34.3906 -33.3203 Q32.8672 -31.7969 32.8359 -29.0938 L29.2266 -29.4688 Q29.6016 -33.5156 32.0234 -35.6328 Q34.4453 -37.75 38.5234 -37.75 Q42.6484 -37.75 45.0469 -35.4688 Q47.4453 -33.1875 47.4453 -29.7969 Q47.4453 -28.0781 46.7422 -26.4219 Q46.0391 -24.7656 44.4141 -22.9297 Q42.7891 -21.0938 38.9922 -17.8906 Q35.8359 -15.2344 34.9375 -14.2891 Q34.0391 -13.3438 33.4453 -12.375 L47.4922 -12.375 Z"
    /></g
    ><g transform="translate(963.9117,794.6042)" style="text-rendering:geometricPrecision; font-size:40px; color-interpolation:linearRGB; color-rendering:optimizeQuality; image-rendering:optimizeQuality;"
    ><path style="stroke:none;" d="M-48.8438 -23.125 Q-48.8438 -28.2031 -47.7969 -31.2969 Q-46.75 -34.3906 -44.6875 -36.0703 Q-42.625 -37.75 -39.5 -37.75 Q-37.2031 -37.75 -35.4609 -36.8203 Q-33.7188 -35.8906 -32.5859 -34.1484 Q-31.4531 -32.4062 -30.8125 -29.8906 Q-30.1719 -27.375 -30.1719 -23.125 Q-30.1719 -18.0781 -31.2031 -14.9844 Q-32.2344 -11.8906 -34.2969 -10.2031 Q-36.3594 -8.5156 -39.5 -8.5156 Q-43.6406 -8.5156 -46 -11.4844 Q-48.8438 -15.0625 -48.8438 -23.125 ZM-45.2188 -23.125 Q-45.2188 -16.0781 -43.5703 -13.7422 Q-41.9219 -11.4062 -39.5 -11.4062 Q-37.0781 -11.4062 -35.4297 -13.75 Q-33.7812 -16.0938 -33.7812 -23.125 Q-33.7812 -30.1875 -35.4297 -32.5156 Q-37.0781 -34.8438 -39.5469 -34.8438 Q-41.9688 -34.8438 -43.4062 -32.7969 Q-45.2188 -30.1719 -45.2188 -23.125 ZM-24.6133 -9 L-24.6133 -13 L-20.6133 -13 L-20.6133 -9 L-24.6133 -9 ZM-10.0625 -24.5312 Q-12.25 -25.3281 -13.3047 -26.8125 Q-14.3594 -28.2969 -14.3594 -30.375 Q-14.3594 -33.5 -12.1172 -35.625 Q-9.875 -37.75 -6.1406 -37.75 Q-2.3906 -37.75 -0.1094 -35.5703 Q2.1719 -33.3906 2.1719 -30.2656 Q2.1719 -28.2812 1.1328 -26.8047 Q0.0938 -25.3281 -2.0469 -24.5312 Q0.5938 -23.6719 1.9688 -21.7578 Q3.3438 -19.8438 3.3438 -17.1875 Q3.3438 -13.5156 0.75 -11.0156 Q-1.8438 -8.5156 -6.0781 -8.5156 Q-10.3281 -8.5156 -12.9219 -11.0234 Q-15.5156 -13.5312 -15.5156 -17.2812 Q-15.5156 -20.0781 -14.1016 -21.9609 Q-12.6875 -23.8438 -10.0625 -24.5312 ZM-10.7656 -30.4844 Q-10.7656 -28.4531 -9.4609 -27.1641 Q-8.1562 -25.875 -6.0625 -25.875 Q-4.0312 -25.875 -2.7344 -27.1562 Q-1.4375 -28.4375 -1.4375 -30.2969 Q-1.4375 -32.2188 -2.7734 -33.5391 Q-4.1094 -34.8594 -6.1094 -34.8594 Q-8.1094 -34.8594 -9.4375 -33.5703 Q-10.7656 -32.2812 -10.7656 -30.4844 ZM-11.9062 -17.2656 Q-11.9062 -15.7656 -11.1953 -14.3594 Q-10.4844 -12.9531 -9.0781 -12.1797 Q-7.6719 -11.4062 -6.0469 -11.4062 Q-3.5312 -11.4062 -1.8906 -13.0234 Q-0.25 -14.6406 -0.25 -17.1406 Q-0.25 -19.6875 -1.9375 -21.3438 Q-3.625 -23 -6.1562 -23 Q-8.6406 -23 -10.2734 -21.3594 Q-11.9062 -19.7188 -11.9062 -17.2656 ZM25.2461 -12.375 L25.2461 -9 L6.3242 -9 Q6.2773 -10.2656 6.7305 -11.4375 Q7.4492 -13.375 9.043 -15.25 Q10.6367 -17.125 13.6367 -19.5938 Q18.3086 -23.4219 19.9492 -25.6562 Q21.5898 -27.8906 21.5898 -29.875 Q21.5898 -31.9688 20.0977 -33.4062 Q18.6055 -34.8438 16.1992 -34.8438 Q13.668 -34.8438 12.1445 -33.3203 Q10.6211 -31.7969 10.5898 -29.0938 L6.9805 -29.4688 Q7.3555 -33.5156 9.7773 -35.6328 Q12.1992 -37.75 16.2773 -37.75 Q20.4023 -37.75 22.8008 -35.4688 Q25.1992 -33.1875 25.1992 -29.7969 Q25.1992 -28.0781 24.4961 -26.4219 Q23.793 -24.7656 22.168 -22.9297 Q20.543 -21.0938 16.7461 -17.8906 Q13.5898 -15.2344 12.6914 -14.2891 Q11.793 -13.3438 11.1992 -12.375 L25.2461 -12.375 ZM29.0078 -23.125 Q29.0078 -28.2031 30.0547 -31.2969 Q31.1016 -34.3906 33.1641 -36.0703 Q35.2266 -37.75 38.3516 -37.75 Q40.6484 -37.75 42.3906 -36.8203 Q44.1328 -35.8906 45.2656 -34.1484 Q46.3984 -32.4062 47.0391 -29.8906 Q47.6797 -27.375 47.6797 -23.125 Q47.6797 -18.0781 46.6484 -14.9844 Q45.6172 -11.8906 43.5547 -10.2031 Q41.4922 -8.5156 38.3516 -8.5156 Q34.2109 -8.5156 31.8516 -11.4844 Q29.0078 -15.0625 29.0078 -23.125 ZM32.6328 -23.125 Q32.6328 -16.0781 34.2812 -13.7422 Q35.9297 -11.4062 38.3516 -11.4062 Q40.7734 -11.4062 42.4219 -13.75 Q44.0703 -16.0938 44.0703 -23.125 Q44.0703 -30.1875 42.4219 -32.5156 Q40.7734 -34.8438 38.3047 -34.8438 Q35.8828 -34.8438 34.4453 -32.7969 Q32.6328 -30.1719 32.6328 -23.125 Z"
    /></g
    ><g style="stroke-linecap:butt; text-rendering:geometricPrecision; color-rendering:optimizeQuality; image-rendering:optimizeQuality; stroke-linejoin:round; color-interpolation:linearRGB; stroke-width:3.3333;"
    ><line y2="198.2554" style="fill:none;" x1="461.1471" x2="509.0294" y1="198.2554"
      /><line y2="184.3934" style="fill:none;" x1="461.1471" x2="509.0294" y1="184.3934"
      /><line y2="184.3934" style="fill:none;" x1="485.0882" x2="485.0882" y1="198.2554"
      /><line y2="430.1215" style="fill:none;" x1="700.5588" x2="748.4412" y1="430.1215"
      /><line y2="423.7776" style="fill:none;" x1="700.5588" x2="748.4412" y1="423.7776"
      /><line y2="423.7776" style="fill:none;" x1="724.5" x2="724.5" y1="430.1215"
      /><line y2="802.2388" style="fill:none;" x1="939.9706" x2="987.8529" y1="802.2388"
      /><line y2="798.2753" style="fill:none;" x1="939.9706" x2="987.8529" y1="798.2753"
      /><line y2="798.2753" style="fill:none;" x1="963.9117" x2="963.9117" y1="802.2388"
    /></g
    ><g transform="translate(485.0882,647.5324)" style="text-rendering:geometricPrecision; font-size:40px; color-interpolation:linearRGB; color-rendering:optimizeQuality; image-rendering:optimizeQuality;"
    ><path style="stroke:none;" d="M-30.3594 -12.375 L-30.3594 -9 L-49.2812 -9 Q-49.3281 -10.2656 -48.875 -11.4375 Q-48.1562 -13.375 -46.5625 -15.25 Q-44.9688 -17.125 -41.9688 -19.5938 Q-37.2969 -23.4219 -35.6562 -25.6562 Q-34.0156 -27.8906 -34.0156 -29.875 Q-34.0156 -31.9688 -35.5078 -33.4062 Q-37 -34.8438 -39.4062 -34.8438 Q-41.9375 -34.8438 -43.4609 -33.3203 Q-44.9844 -31.7969 -45.0156 -29.0938 L-48.625 -29.4688 Q-48.25 -33.5156 -45.8281 -35.6328 Q-43.4062 -37.75 -39.3281 -37.75 Q-35.2031 -37.75 -32.8047 -35.4688 Q-30.4062 -33.1875 -30.4062 -29.7969 Q-30.4062 -28.0781 -31.1094 -26.4219 Q-31.8125 -24.7656 -33.4375 -22.9297 Q-35.0625 -21.0938 -38.8594 -17.8906 Q-42.0156 -15.2344 -42.9141 -14.2891 Q-43.8125 -13.3438 -44.4062 -12.375 L-30.3594 -12.375 ZM-24.6133 -9 L-24.6133 -13 L-20.6133 -13 L-20.6133 -9 L-24.6133 -9 ZM-2.2344 -9 L-5.75 -9 L-5.75 -31.4062 Q-7.0156 -30.1875 -9.0781 -28.9766 Q-11.1406 -27.7656 -12.7812 -27.1719 L-12.7812 -30.5625 Q-9.8281 -31.9531 -7.625 -33.9219 Q-5.4219 -35.8906 -4.5 -37.75 L-2.2344 -37.75 L-2.2344 -9 ZM25.2461 -12.375 L25.2461 -9 L6.3242 -9 Q6.2773 -10.2656 6.7305 -11.4375 Q7.4492 -13.375 9.043 -15.25 Q10.6367 -17.125 13.6367 -19.5938 Q18.3086 -23.4219 19.9492 -25.6562 Q21.5898 -27.8906 21.5898 -29.875 Q21.5898 -31.9688 20.0977 -33.4062 Q18.6055 -34.8438 16.1992 -34.8438 Q13.668 -34.8438 12.1445 -33.3203 Q10.6211 -31.7969 10.5898 -29.0938 L6.9805 -29.4688 Q7.3555 -33.5156 9.7773 -35.6328 Q12.1992 -37.75 16.2773 -37.75 Q20.4023 -37.75 22.8008 -35.4688 Q25.1992 -33.1875 25.1992 -29.7969 Q25.1992 -28.0781 24.4961 -26.4219 Q23.793 -24.7656 22.168 -22.9297 Q20.543 -21.0938 16.7461 -17.8906 Q13.5898 -15.2344 12.6914 -14.2891 Q11.793 -13.3438 11.1992 -12.375 L25.2461 -12.375 ZM42.2578 -9 L38.7422 -9 L38.7422 -31.4062 Q37.4766 -30.1875 35.4141 -28.9766 Q33.3516 -27.7656 31.7109 -27.1719 L31.7109 -30.5625 Q34.6641 -31.9531 36.8672 -33.9219 Q39.0703 -35.8906 39.9922 -37.75 L42.2578 -37.75 L42.2578 -9 Z"
    /></g
    ><g transform="translate(724.5,704.6312)" style="text-rendering:geometricPrecision; font-size:40px; color-interpolation:linearRGB; color-rendering:optimizeQuality; image-rendering:optimizeQuality;"
    ><path style="stroke:none;" d="M-35.5938 -9 L-39.1094 -9 L-39.1094 -31.4062 Q-40.375 -30.1875 -42.4375 -28.9766 Q-44.5 -27.7656 -46.1406 -27.1719 L-46.1406 -30.5625 Q-43.1875 -31.9531 -40.9844 -33.9219 Q-38.7812 -35.8906 -37.8594 -37.75 L-35.5938 -37.75 L-35.5938 -9 ZM-24.6133 -9 L-24.6133 -13 L-20.6133 -13 L-20.6133 -9 L-24.6133 -9 ZM2.7656 -30.625 L-0.7344 -30.3438 Q-1.2031 -32.4219 -2.0625 -33.3594 Q-3.4844 -34.8594 -5.5781 -34.8594 Q-7.25 -34.8594 -8.5312 -33.9219 Q-10.1875 -32.7188 -11.1406 -30.3906 Q-12.0938 -28.0625 -12.1406 -23.7656 Q-10.875 -25.7031 -9.0391 -26.6406 Q-7.2031 -27.5781 -5.1875 -27.5781 Q-1.6719 -27.5781 0.7969 -24.9922 Q3.2656 -22.4062 3.2656 -18.2969 Q3.2656 -15.6094 2.1094 -13.2891 Q0.9531 -10.9688 -1.0781 -9.7422 Q-3.1094 -8.5156 -5.6875 -8.5156 Q-10.0938 -8.5156 -12.8672 -11.75 Q-15.6406 -14.9844 -15.6406 -22.4062 Q-15.6406 -30.7031 -12.5625 -34.4688 Q-9.8906 -37.75 -5.3594 -37.75 Q-1.9844 -37.75 0.1719 -35.8594 Q2.3281 -33.9688 2.7656 -30.625 ZM-11.5938 -18.2812 Q-11.5938 -16.4688 -10.8203 -14.8047 Q-10.0469 -13.1406 -8.6641 -12.2734 Q-7.2812 -11.4062 -5.75 -11.4062 Q-3.5312 -11.4062 -1.9297 -13.2031 Q-0.3281 -15 -0.3281 -18.0781 Q-0.3281 -21.0469 -1.9062 -22.7578 Q-3.4844 -24.4688 -5.8906 -24.4688 Q-8.2656 -24.4688 -9.9297 -22.7578 Q-11.5938 -21.0469 -11.5938 -18.2812 ZM20.0117 -9 L16.4961 -9 L16.4961 -31.4062 Q15.2305 -30.1875 13.168 -28.9766 Q11.1055 -27.7656 9.4648 -27.1719 L9.4648 -30.5625 Q12.418 -31.9531 14.6211 -33.9219 Q16.8242 -35.8906 17.7461 -37.75 L20.0117 -37.75 L20.0117 -9 ZM47.2578 -30.625 L43.7578 -30.3438 Q43.2891 -32.4219 42.4297 -33.3594 Q41.0078 -34.8594 38.9141 -34.8594 Q37.2422 -34.8594 35.9609 -33.9219 Q34.3047 -32.7188 33.3516 -30.3906 Q32.3984 -28.0625 32.3516 -23.7656 Q33.6172 -25.7031 35.4531 -26.6406 Q37.2891 -27.5781 39.3047 -27.5781 Q42.8203 -27.5781 45.2891 -24.9922 Q47.7578 -22.4062 47.7578 -18.2969 Q47.7578 -15.6094 46.6016 -13.2891 Q45.4453 -10.9688 43.4141 -9.7422 Q41.3828 -8.5156 38.8047 -8.5156 Q34.3984 -8.5156 31.625 -11.75 Q28.8516 -14.9844 28.8516 -22.4062 Q28.8516 -30.7031 31.9297 -34.4688 Q34.6016 -37.75 39.1328 -37.75 Q42.5078 -37.75 44.6641 -35.8594 Q46.8203 -33.9688 47.2578 -30.625 ZM32.8984 -18.2812 Q32.8984 -16.4688 33.6719 -14.8047 Q34.4453 -13.1406 35.8281 -12.2734 Q37.2109 -11.4062 38.7422 -11.4062 Q40.9609 -11.4062 42.5625 -13.2031 Q44.1641 -15 44.1641 -18.0781 Q44.1641 -21.0469 42.5859 -22.7578 Q41.0078 -24.4688 38.6016 -24.4688 Q36.2266 -24.4688 34.5625 -22.7578 Q32.8984 -21.0469 32.8984 -18.2812 Z"
    /></g
    ><g transform="translate(963.9117,887.3472)" style="text-rendering:geometricPrecision; font-size:40px; color-interpolation:linearRGB; color-rendering:optimizeQuality; image-rendering:optimizeQuality;"
    ><path style="stroke:none;" d="M-9.8438 -23.125 Q-9.8438 -28.2031 -8.7969 -31.2969 Q-7.75 -34.3906 -5.6875 -36.0703 Q-3.625 -37.75 -0.5 -37.75 Q1.7969 -37.75 3.5391 -36.8203 Q5.2812 -35.8906 6.4141 -34.1484 Q7.5469 -32.4062 8.1875 -29.8906 Q8.8281 -27.375 8.8281 -23.125 Q8.8281 -18.0781 7.7969 -14.9844 Q6.7656 -11.8906 4.7031 -10.2031 Q2.6406 -8.5156 -0.5 -8.5156 Q-4.6406 -8.5156 -7 -11.4844 Q-9.8438 -15.0625 -9.8438 -23.125 ZM-6.2188 -23.125 Q-6.2188 -16.0781 -4.5703 -13.7422 Q-2.9219 -11.4062 -0.5 -11.4062 Q1.9219 -11.4062 3.5703 -13.75 Q5.2188 -16.0938 5.2188 -23.125 Q5.2188 -30.1875 3.5703 -32.5156 Q1.9219 -34.8438 -0.5469 -34.8438 Q-2.9688 -34.8438 -4.4062 -32.7969 Q-6.2188 -30.1719 -6.2188 -23.125 Z"
    /></g
    ><g style="fill:white; text-rendering:optimizeSpeed; color-rendering:optimizeSpeed; image-rendering:optimizeSpeed; shape-rendering:crispEdges; stroke:white; color-interpolation:sRGB;"
    ><path style="stroke:none;" d="M820 250 L1106 250 L1106 106 L820 106 Z"
    /></g
    ><g style="fill:rgb(38,38,38); text-rendering:geometricPrecision; image-rendering:optimizeQuality; color-rendering:optimizeQuality; stroke-linejoin:round; stroke:rgb(38,38,38); color-interpolation:linearRGB; stroke-width:1.6667;"
    ><line y2="250" style="fill:none;" x1="820" x2="1106" y1="250"
      /><line y2="106" style="fill:none;" x1="820" x2="1106" y1="106"
      /><line y2="106" style="fill:none;" x1="820" x2="820" y1="250"
      /><line y2="106" style="fill:none;" x1="1106" x2="1106" y1="250"
    /></g
    ><g transform="translate(947.3887,180.1326)" style="text-rendering:geometricPrecision; font-size:53.3333px; color-interpolation:linearRGB; color-rendering:optimizeQuality; image-rendering:optimizeQuality;"
    ><path style="stroke:none;" d="M3.9375 -12 L3.9375 -49.9375 L11.4844 -49.9375 L20.4688 -23.0781 Q21.7188 -19.3281 22.2812 -17.4531 Q22.9219 -19.5312 24.2969 -23.5469 L33.3906 -49.9375 L40.1406 -49.9375 L40.1406 -12 L35.2969 -12 L35.2969 -43.75 L24.2812 -12 L19.75 -12 L8.7656 -44.2969 L8.7656 -12 L3.9375 -12 ZM66.7222 -20.8438 L71.5347 -20.25 Q70.3941 -16.0312 67.316 -13.7031 Q64.2379 -11.375 59.441 -11.375 Q53.4097 -11.375 49.8785 -15.0938 Q46.3472 -18.8125 46.3472 -25.5156 Q46.3472 -32.4375 49.9175 -36.2734 Q53.4879 -40.1094 59.191 -40.1094 Q64.7066 -40.1094 68.1988 -36.3516 Q71.691 -32.5938 71.691 -25.7969 Q71.691 -25.375 71.6597 -24.5469 L51.1597 -24.5469 Q51.4254 -20.0156 53.73 -17.6094 Q56.0347 -15.2031 59.4722 -15.2031 Q62.0347 -15.2031 63.8472 -16.5547 Q65.6597 -17.9062 66.7222 -20.8438 ZM51.4254 -28.375 L66.7691 -28.375 Q66.4566 -31.8438 65.0035 -33.5781 Q62.7847 -36.2812 59.2379 -36.2812 Q56.0347 -36.2812 53.8472 -34.1328 Q51.6597 -31.9844 51.4254 -28.375 ZM95.4815 -15.3906 Q92.9034 -13.1875 90.5049 -12.2812 Q88.1065 -11.375 85.3721 -11.375 Q80.8409 -11.375 78.4112 -13.5859 Q75.9815 -15.7969 75.9815 -19.25 Q75.9815 -21.2656 76.8955 -22.9375 Q77.8096 -24.6094 79.3018 -25.6172 Q80.794 -26.625 82.6534 -27.1406 Q84.0284 -27.5 86.794 -27.8438 Q92.4346 -28.5156 95.1065 -29.4375 Q95.1221 -30.4062 95.1221 -30.6562 Q95.1221 -33.5 93.8096 -34.6719 Q92.0127 -36.25 88.4971 -36.25 Q85.2159 -36.25 83.6455 -35.1016 Q82.0752 -33.9531 81.3252 -31.0156 L76.7784 -31.6406 Q77.4034 -34.5625 78.8252 -36.3594 Q80.2471 -38.1562 82.9346 -39.1328 Q85.6221 -40.1094 89.169 -40.1094 Q92.7002 -40.1094 94.8955 -39.2812 Q97.0909 -38.4531 98.1299 -37.1953 Q99.169 -35.9375 99.5752 -34.0156 Q99.8096 -32.8281 99.8096 -29.7344 L99.8096 -23.5156 Q99.8096 -17.0156 100.1065 -15.2969 Q100.4034 -13.5781 101.2784 -12 L96.419 -12 Q95.7002 -13.4531 95.4815 -15.3906 ZM95.1065 -25.7969 Q92.5596 -24.7656 87.4971 -24.0312 Q84.6221 -23.625 83.4268 -23.1016 Q82.2315 -22.5781 81.5909 -21.5859 Q80.9502 -20.5938 80.9502 -19.375 Q80.9502 -17.5156 82.3565 -16.2734 Q83.7627 -15.0312 86.4815 -15.0312 Q89.169 -15.0312 91.2705 -16.2109 Q93.3721 -17.3906 94.3565 -19.4219 Q95.1065 -21 95.1065 -24.0781 L95.1065 -25.7969 ZM107.2095 -12 L107.2095 -39.4844 L111.397 -39.4844 L111.397 -35.5781 Q114.4282 -40.1094 120.147 -40.1094 Q122.6313 -40.1094 124.7095 -39.2109 Q126.7876 -38.3125 127.8267 -36.8672 Q128.8657 -35.4219 129.272 -33.4219 Q129.5376 -32.1406 129.5376 -28.9062 L129.5376 -12 L124.8813 -12 L124.8813 -28.7188 Q124.8813 -31.5625 124.3345 -32.9766 Q123.7876 -34.3906 122.4048 -35.2266 Q121.022 -36.0625 119.1626 -36.0625 Q116.1782 -36.0625 114.022 -34.1797 Q111.8657 -32.2969 111.8657 -27.0156 L111.8657 -12 L107.2095 -12 Z"
    /></g
    ><g transform="translate(947.3887,242.2326)" style="text-rendering:geometricPrecision; font-size:53.3333px; color-interpolation:linearRGB; color-rendering:optimizeQuality; image-rendering:optimizeQuality;"
    ><path style="stroke:none;" d="M3.9375 -12 L3.9375 -49.9375 L11.4844 -49.9375 L20.4688 -23.0781 Q21.7188 -19.3281 22.2812 -17.4531 Q22.9219 -19.5312 24.2969 -23.5469 L33.3906 -49.9375 L40.1406 -49.9375 L40.1406 -12 L35.2969 -12 L35.2969 -43.75 L24.2812 -12 L19.75 -12 L8.7656 -44.2969 L8.7656 -12 L3.9375 -12 ZM46.1754 -25.7344 Q46.1754 -33.375 50.4097 -37.0469 Q53.9566 -40.1094 59.0504 -40.1094 Q64.7222 -40.1094 68.3238 -36.3906 Q71.9254 -32.6719 71.9254 -26.125 Q71.9254 -20.8281 70.3316 -17.7891 Q68.7379 -14.75 65.6988 -13.0625 Q62.6597 -11.375 59.0504 -11.375 Q53.2847 -11.375 49.73 -15.0781 Q46.1754 -18.7812 46.1754 -25.7344 ZM50.9566 -25.7344 Q50.9566 -20.4688 53.2613 -17.8359 Q55.566 -15.2031 59.0504 -15.2031 Q62.5191 -15.2031 64.8238 -17.8438 Q67.1285 -20.4844 67.1285 -25.8906 Q67.1285 -31 64.816 -33.625 Q62.5035 -36.25 59.0504 -36.25 Q55.566 -36.25 53.2613 -33.6328 Q50.9566 -31.0156 50.9566 -25.7344 ZM95.3877 -12 L95.3877 -15.4688 Q92.7627 -11.375 87.7002 -11.375 Q84.419 -11.375 81.6612 -13.1875 Q78.9034 -15 77.3877 -18.25 Q75.8721 -21.5 75.8721 -25.7188 Q75.8721 -29.8281 77.2471 -33.1797 Q78.6221 -36.5312 81.3643 -38.3203 Q84.1065 -40.1094 87.4971 -40.1094 Q89.9815 -40.1094 91.919 -39.0625 Q93.8565 -38.0156 95.0752 -36.3281 L95.0752 -49.9375 L99.7002 -49.9375 L99.7002 -12 L95.3877 -12 ZM80.6534 -25.7188 Q80.6534 -20.4375 82.8799 -17.8203 Q85.1065 -15.2031 88.1377 -15.2031 Q91.1846 -15.2031 93.3252 -17.7031 Q95.4659 -20.2031 95.4659 -25.3281 Q95.4659 -30.9688 93.2862 -33.6094 Q91.1065 -36.25 87.9346 -36.25 Q84.8252 -36.25 82.7393 -33.7109 Q80.6534 -31.1719 80.6534 -25.7188 ZM126.022 -20.8438 L130.8345 -20.25 Q129.6938 -16.0312 126.6157 -13.7031 Q123.5376 -11.375 118.7407 -11.375 Q112.7095 -11.375 109.1782 -15.0938 Q105.647 -18.8125 105.647 -25.5156 Q105.647 -32.4375 109.2173 -36.2734 Q112.7876 -40.1094 118.4907 -40.1094 Q124.0063 -40.1094 127.4985 -36.3516 Q130.9907 -32.5938 130.9907 -25.7969 Q130.9907 -25.375 130.9595 -24.5469 L110.4595 -24.5469 Q110.7251 -20.0156 113.0298 -17.6094 Q115.3345 -15.2031 118.772 -15.2031 Q121.3345 -15.2031 123.147 -16.5547 Q124.9595 -17.9062 126.022 -20.8438 ZM110.7251 -28.375 L126.0688 -28.375 Q125.7563 -31.8438 124.3032 -33.5781 Q122.0845 -36.2812 118.5376 -36.2812 Q115.3345 -36.2812 113.147 -34.1328 Q110.9595 -31.9844 110.7251 -28.375 Z"
    /></g
    ><g style="fill:white; text-rendering:optimizeSpeed; color-rendering:optimizeSpeed; image-rendering:optimizeSpeed; shape-rendering:crispEdges; stroke:white; color-interpolation:sRGB;"
    ><path style="stroke:none;" d="M834.9869 118.2713 L834.9869 170.1113 L934.8995 170.1113 L934.8995 118.2713 Z"
    /></g
    ><g style="text-rendering:geometricPrecision; stroke-width:1.6667; color-interpolation:linearRGB; color-rendering:optimizeQuality; image-rendering:optimizeQuality;"
    ><path d="M834.9869 170.1113 L834.9869 118.2713 L934.8995 118.2713 L934.8995 170.1113 L834.9869 170.1113 L834.9869 170.1113" style="fill:none; fill-rule:evenodd;"
      /><line x1="917.998" x2="934.8995" y1="170.1113" style="stroke-linecap:butt; fill:none; stroke-linejoin:round;" y2="161.6015"
      /><line x1="897.7748" x2="934.8995" y1="170.1113" style="stroke-linecap:butt; fill:none; stroke-linejoin:round;" y2="151.4191"
      /><line x1="877.5516" x2="934.8995" y1="170.1113" style="stroke-linecap:butt; fill:none; stroke-linejoin:round;" y2="141.2368"
      /><line x1="857.3283" x2="934.8995" y1="170.1113" style="stroke-linecap:butt; fill:none; stroke-linejoin:round;" y2="131.0544"
      /><line x1="837.105" x2="934.8995" y1="170.1113" style="stroke-linecap:butt; fill:none; stroke-linejoin:round;" y2="120.8721"
      /><line x1="834.9869" x2="919.8418" y1="160.9954" style="stroke-linecap:butt; fill:none; stroke-linejoin:round;" y2="118.2713"
      /><line x1="834.9869" x2="899.6185" y1="150.8131" style="stroke-linecap:butt; fill:none; stroke-linejoin:round;" y2="118.2713"
      /><line x1="834.9869" x2="879.3953" y1="140.6308" style="stroke-linecap:butt; fill:none; stroke-linejoin:round;" y2="118.2713"
      /><line x1="834.9869" x2="859.1721" y1="130.4484" style="stroke-linecap:butt; fill:none; stroke-linejoin:round;" y2="118.2713"
      /><line x1="834.9869" x2="838.9488" y1="120.2661" style="stroke-linecap:butt; fill:none; stroke-linejoin:round;" y2="118.2713"
    /></g
    ><g style="text-rendering:optimizeSpeed; shape-rendering:crispEdges; color-interpolation:sRGB; color-rendering:optimizeSpeed; image-rendering:optimizeSpeed;"
    ><path style="stroke:none;" d="M834.9869 185.8887 L834.9869 237.7287 L934.8995 237.7287 L934.8995 185.8887 Z"
    /></g
    ><g style="text-rendering:geometricPrecision; stroke-width:1.6667; color-interpolation:linearRGB; color-rendering:optimizeQuality; image-rendering:optimizeQuality;"
    ><path d="M834.9869 237.7287 L834.9869 185.8887 L934.8995 185.8887 L934.8995 237.7287 L834.9869 237.7287 L834.9869 237.7287" style="fill:none; fill-rule:evenodd;"
    /></g
    ><g transform="translate(0,1051)" style="fill:gray; text-rendering:geometricPrecision; color-rendering:optimizeQuality; image-rendering:optimizeQuality; color-interpolation:linearRGB; stroke:gray;"
    ><circle r="6.6667" style="stroke:none;" cx="0" cy="0"
    /></g
    ><g transform="translate(0,1051)" style="fill:rgb(255,255,220); text-rendering:geometricPrecision; color-rendering:optimizeQuality; image-rendering:optimizeQuality; stroke:rgb(255,255,220); color-interpolation:linearRGB; stroke-width:1.6667;"
    ><path style="stroke:none;" d="M0 -6.6667 C3.6819 -6.6667 6.6667 -3.6819 6.6667 0 L6.6667 0 C6.6667 3.6819 3.6819 6.6667 -0 6.6667 C-3.6819 6.6667 -6.6667 3.6819 -6.6667 -0 C-6.6667 -3.6819 -3.6819 -6.6667 0 -6.6667 ZM0 -10 C-5.5228 -10 -10 -5.5228 -10 -0 C-10 5.5228 -5.5228 10 -0 10 C5.5228 10 10 5.5228 10 0 L10 0 C10 -5.5228 5.5228 -10 0 -10 Z"
    /></g
  ></g
></svg>