<svg width="3938" height="1567" xmlns="http://www.w3.org/2000/svg" xmlns:xlink="http://www.w3.org/1999/xlink" xml:space="preserve" overflow="hidden"><g transform="translate(-38 -263)"><path d="M837.5 305.167C837.5 283.812 854.812 266.5 876.167 266.5L2114.83 266.5C2136.19 266.5 2153.5 283.812 2153.5 305.167L2153.5 459.833C2153.5 481.188 2136.19 498.5 2114.83 498.5L876.167 498.5C854.812 498.5 837.5 481.188 837.5 459.833Z" stroke="#203864" stroke-width="4.58333" stroke-miterlimit="8" fill="#B4C7E7" fill-rule="evenodd"/><text font-family="Times New Roman,Times New Roman_MSFontService,sans-serif" font-weight="400" font-size="83" transform="matrix(1 0 0 1 945.595 369)">Vanilla Tor: Consensus Directory</text><text font-family="Times New Roman,Times New Roman_MSFontService,sans-serif" font-style="italic" font-weight="400" font-size="73" transform="matrix(1 0 0 1 1112.66 459)">Relays + Flags + Weights</text><path d="M40.5001 643.167C40.5001 621.812 57.8117 604.5 79.1667 604.5L2906.83 604.5C2928.19 604.5 2945.5 621.812 2945.5 643.167L2945.5 797.833C2945.5 819.188 2928.19 836.5 2906.83 836.5L79.1667 836.5C57.8117 836.5 40.5001 819.188 40.5001 797.833Z" stroke="#385723" stroke-width="4.58333" stroke-miterlimit="8" fill="#C5E0B4" fill-rule="evenodd"/><text font-family="Times New Roman,Times New Roman_MSFontService,sans-serif" font-weight="400" font-size="83" transform="matrix(1 0 0 1 859.233 707)">Quick Tor: Latency Intelligence Layer</text><text font-family="Times New Roman,Times New Roman_MSFontService,sans-serif" font-style="italic" font-weight="400" font-size="73" transform="matrix(1 0 0 1 1109.92 797)">Relays + Flags + Weights</text><path d="M44.4998 993.726C44.4998 965.435 67.4346 942.5 95.7262 942.5L916.274 942.5C944.565 942.5 967.5 965.435 967.5 993.726L967.5 1453.27C967.5 1481.57 944.565 1504.5 916.274 1504.5L95.7262 1504.5C67.4346 1504.5 44.4998 1481.57 44.4998 1453.27Z" stroke="#203864" stroke-width="6.875" stroke-miterlimit="8" fill="#FFFFFF" fill-rule="evenodd"/><text font-family="Arial,Arial_MSFontService,sans-serif" font-weight="400" font-size="73" transform="matrix(1 0 0 1 91.9063 1250)">•</text><text font-family="Times New Roman,Times New Roman_MSFontService,sans-serif" font-weight="400" font-size="73" transform="matrix(1 0 0 1 195.031 1250)">Owned Middle relays</text><text font-family="Arial,Arial_MSFontService,sans-serif" font-weight="400" font-size="73" transform="matrix(1 0 0 1 91.9063 1338)">•</text><text font-family="Times New Roman,Times New Roman_MSFontService,sans-serif" font-weight="400" font-size="73" transform="matrix(1 0 0 1 195.031 1338)">to Entry and Exit relays</text><text font-family="Arial,Arial_MSFontService,sans-serif" font-weight="400" font-size="73" transform="matrix(1 0 0 1 91.9063 1426)">•</text><text font-family="Times New Roman,Times New Roman_MSFontService,sans-serif" font-weight="400" font-size="73" transform="matrix(1 0 0 1 195.031 1426)">Publish every hour</text><path d="M105.962 942.5 902.038 942.5C938.192 942.5 967.5 971.808 967.5 1007.96L967.5 1135.5 40.5001 1135.5 40.5001 1007.96C40.5001 971.808 69.8083 942.5 105.962 942.5Z" stroke="#385723" stroke-width="4.58333" stroke-miterlimit="8" fill="#A9D18E" fill-rule="evenodd"/><text font-family="Times New Roman,Times New Roman_MSFontService,sans-serif" font-weight="700" font-size="73" transform="matrix(1 0 0 1 124.495 1075)">(1) Relay</text><text font-family="Times New Roman,Times New Roman_MSFontService,sans-serif" font-weight="700" font-size="73" transform="matrix(1 0 0 1 408.089 1075)">-</text><text font-family="Times New Roman,Times New Roman_MSFontService,sans-serif" font-weight="700" font-size="73" transform="matrix(1 0 0 1 432.724 1075)">Relay Latency</text><path d="M1036.5 1005.73C1036.5 977.435 1059.43 954.5 1087.73 954.5L1908.27 954.5C1936.56 954.5 1959.5 977.435 1959.5 1005.73L1959.5 1465.27C1959.5 1493.57 1936.56 1516.5 1908.27 1516.5L1087.73 1516.5C1059.43 1516.5 1036.5 1493.57 1036.5 1465.27Z" stroke="#203864" stroke-width="6.875" stroke-miterlimit="8" fill="#FFFFFF" fill-rule="evenodd"/><text font-family="Arial,Arial_MSFontService,sans-serif" font-weight="400" font-size="73" transform="matrix(1 0 0 1 1083.56 1306)">•</text><text font-family="Times New Roman,Times New Roman_MSFontService,sans-serif" font-weight="400" font-size="73" transform="matrix(1 0 0 1 1186.69 1306)">Client to Entry relays</text><text font-family="Arial,Arial_MSFontService,sans-serif" font-weight="400" font-size="73" transform="matrix(1 0 0 1 1083.56 1394)">•</text><text font-family="Times New Roman,Times New Roman_MSFontService,sans-serif" font-weight="400" font-size="73" transform="matrix(1 0 0 1 1186.69 1394)">Stored locally</text><path d="M1097.96 954.5 1894.04 954.5C1930.19 954.5 1959.5 983.808 1959.5 1019.96L1959.5 1147.5 1032.5 1147.5 1032.5 1019.96C1032.5 983.808 1061.81 954.5 1097.96 954.5Z" stroke="#385723" stroke-width="4.58333" stroke-miterlimit="8" fill="#A9D18E" fill-rule="evenodd"/><text font-family="Times New Roman,Times New Roman_MSFontService,sans-serif" font-weight="700" font-size="73" transform="matrix(1 0 0 1 1109.85 1087)">(2) Client</text><text font-family="Times New Roman,Times New Roman_MSFontService,sans-serif" font-weight="700" font-size="73" transform="matrix(1 0 0 1 1406.05 1087)">-</text><text font-family="Times New Roman,Times New Roman_MSFontService,sans-serif" font-weight="700" font-size="73" transform="matrix(1 0 0 1 1430.68 1087)">Relay Latency</text><path d="M2022.5 1005.73C2022.5 977.435 2045.43 954.5 2073.73 954.5L2894.27 954.5C2922.57 954.5 2945.5 977.435 2945.5 1005.73L2945.5 1465.27C2945.5 1493.57 2922.57 1516.5 2894.27 1516.5L2073.73 1516.5C2045.43 1516.5 2022.5 1493.57 2022.5 1465.27Z" stroke="#203864" stroke-width="6.875" stroke-miterlimit="8" fill="#FFFFFF" fill-rule="evenodd"/><text font-family="Arial,Arial_MSFontService,sans-serif" font-weight="400" font-size="73" transform="matrix(1 0 0 1 2069.76 1218)">•</text><text font-family="Times New Roman,Times New Roman_MSFontService,sans-serif" font-weight="400" font-size="73" transform="matrix(1 0 0 1 2172.89 1218)">Filter relays with </text><text font-family="Times New Roman,Times New Roman_MSFontService,sans-serif" font-weight="400" font-size="73" transform="matrix(1 0 0 1 2172.89 1306)">latency </text><text font-family="Cambria Math,Cambria Math_MSFontService,sans-serif" font-weight="400" font-size="73" transform="matrix(1 0 0 1 2403.78 1306)">&gt; </text><text font-family="Cambria Math,Cambria Math_MSFontService,sans-serif" font-weight="400" font-size="73" transform="matrix(1 0 0 1 2474.82 1306)">τ</text><text font-family="Arial,Arial_MSFontService,sans-serif" font-weight="400" font-size="73" transform="matrix(1 0 0 1 2069.76 1394)">•</text><text font-family="Times New Roman,Times New Roman_MSFontService,sans-serif" font-weight="400" font-size="73" transform="matrix(1 0 0 1 2172.89 1394)">Build circuit from </text><text font-family="Times New Roman,Times New Roman_MSFontService,sans-serif" font-weight="400" font-size="73" transform="matrix(1 0 0 1 2172.89 1482)">remaining relays</text><path d="M2083.96 954.5 2880.04 954.5C2916.19 954.5 2945.5 983.808 2945.5 1019.96L2945.5 1147.5 2018.5 1147.5 2018.5 1019.96C2018.5 983.808 2047.81 954.5 2083.96 954.5Z" stroke="#385723" stroke-width="4.58333" stroke-miterlimit="8" fill="#A9D18E" fill-rule="evenodd"/><text font-family="Times New Roman,Times New Roman_MSFontService,sans-serif" font-weight="700" font-size="73" transform="matrix(1 0 0 1 2097.38 1087)">(3) Threshold Filtering </text><text font-family="Cambria Math,Cambria Math_MSFontService,sans-serif" font-weight="700" font-size="73" transform="matrix(1 0 0 1 2831.49 1087)">τ</text><path d="M1498.87 497.986 1499.06 590.005 1485.31 590.034 1485.12 498.014ZM1522.11 552.172 1492.22 603.664 1462.11 552.295C1460.19 549.02 1461.29 544.808 1464.57 542.888 1467.84 540.968 1472.05 542.067 1473.97 545.343L1498.12 586.543 1486.24 586.568 1510.22 545.268C1512.13 541.984 1516.34 540.868 1519.62 542.774 1522.9 544.681 1524.02 548.888 1522.11 552.172Z"/><path d="M546.875 835.986 547.065 928.005 533.315 928.033 533.125 836.014ZM570.113 890.172 540.218 941.664 510.111 890.295C508.191 887.019 509.29 882.808 512.566 880.888 515.842 878.968 520.054 880.067 521.974 883.343L546.121 924.543 534.244 924.567 558.221 883.268C560.128 879.984 564.335 878.868 567.619 880.774 570.903 882.681 572.019 886.888 570.113 890.172Z"/><path d="M1560.88 836 1560.88 940.307 1547.13 940.307 1547.13 836ZM1584 902.521 1554 953.951 1524 902.521C1522.09 899.241 1523.19 895.031 1526.47 893.118 1529.75 891.205 1533.96 892.313 1535.88 895.593L1559.94 936.842 1548.06 936.842 1572.12 895.592C1574.04 892.313 1578.25 891.205 1581.53 893.118 1584.81 895.031 1585.91 899.241 1584 902.521Z"/><path d="M1959 1292.12 2033.31 1292.13 2033.31 1305.88 1959 1305.88ZM1995.52 1269 2046.95 1299 1995.52 1329C1992.24 1330.91 1988.03 1329.81 1986.12 1326.53 1984.21 1323.25 1985.31 1319.04 1988.59 1317.12L2029.84 1293.06 2029.84 1304.94 1988.59 1280.88C1985.31 1278.96 1984.21 1274.75 1986.12 1271.47 1988.03 1268.19 1992.24 1267.09 1995.52 1269Z"/><rect x="947.5" y="1207.5" width="105" height="133" stroke="#0D0D0D" stroke-width="6.875" stroke-linejoin="round" stroke-miterlimit="10" fill="none"/><text font-family="Calibri,Calibri_MSFontService,sans-serif" font-weight="400" font-size="83" transform="matrix(1 0 0 1 979.737 1300)">+</text><path d="M3049.5 860.631C3049.5 814.167 3087.17 776.5 3133.63 776.5L3888.37 776.5C3934.83 776.5 3972.5 814.167 3972.5 860.631L3972.5 1742.37C3972.5 1788.83 3934.83 1826.5 3888.37 1826.5L3133.63 1826.5C3087.17 1826.5 3049.5 1788.83 3049.5 1742.37Z" stroke="#203864" stroke-width="6.875" stroke-miterlimit="8" fill="#FFFFFF" fill-rule="evenodd"/><text font-family="Times New Roman,Times New Roman_MSFontService,sans-serif" font-weight="700" font-size="73" transform="matrix(1 0 0 1 3132.01 1013)">Entry </text><text font-family="Times New Roman,Times New Roman_MSFontService,sans-serif" font-weight="700" font-size="73" transform="matrix(1 0 0 1 3333.68 1013)">→ Middle → Exit</text><text font-family="Times New Roman,Times New Roman_MSFontService,sans-serif" font-weight="400" font-size="73" transform="matrix(1 0 0 1 3223.68 1101)">(from filtered pool)</text><path d="M3106.5 1203.5C3106.5 1163.74 3145.9 1131.5 3194.5 1131.5 3243.1 1131.5 3282.5 1163.74 3282.5 1203.5 3282.5 1243.26 3243.1 1275.5 3194.5 1275.5 3145.9 1275.5 3106.5 1243.26 3106.5 1203.5Z" stroke="#172C51" stroke-width="4.58333" stroke-miterlimit="8" fill="#203864" fill-rule="evenodd"/><path d="M3391.5 1199.5C3391.5 1159.74 3431.12 1127.5 3480 1127.5 3528.88 1127.5 3568.5 1159.74 3568.5 1199.5 3568.5 1239.26 3528.88 1271.5 3480 1271.5 3431.12 1271.5 3391.5 1239.26 3391.5 1199.5Z" stroke="#172C51" stroke-width="4.58333" stroke-miterlimit="8" fill="#385723" fill-rule="evenodd"/><path d="M3679.5 1203.5C3679.5 1163.74 3719.12 1131.5 3768 1131.5 3816.88 1131.5 3856.5 1163.74 3856.5 1203.5 3856.5 1243.26 3816.88 1275.5 3768 1275.5 3719.12 1275.5 3679.5 1243.26 3679.5 1203.5Z" stroke="#172C51" stroke-width="4.58333" stroke-miterlimit="8" fill="#7F6000" fill-rule="evenodd"/><text font-family="Cambria Math,Cambria Math_MSFontService,sans-serif" font-weight="700" font-size="128" transform="matrix(1 0 0 1 3282.92 1248)">→</text><text font-family="Cambria Math,Cambria Math_MSFontService,sans-serif" font-weight="700" font-size="128" transform="matrix(1 0 0 1 3574.62 1248)">→</text><text font-family="Times New Roman,Times New Roman_MSFontService,sans-serif" font-weight="700" font-size="64" transform="matrix(1 0 0 1 3114.02 1360)">Entry       </text><text font-family="Times New Roman,Times New Roman_MSFontService,sans-serif" font-weight="700" font-size="64" transform="matrix(1 0 0 1 3386.73 1360)">Middle        Exit</text><text font-family="Arial,Arial_MSFontService,sans-serif" font-weight="400" font-size="73" transform="matrix(1 0 0 1 3134.39 1501)">•</text><text font-family="Times New Roman,Times New Roman_MSFontService,sans-serif" font-weight="400" font-size="73" transform="matrix(1 0 0 1 3237.52 1501)">Latency </text><text fill="#00B050" font-family="Cambria Math,Cambria Math_MSFontService,sans-serif" font-weight="700" font-size="73" transform="matrix(1 0 0 1 3492.47 1501)">↓</text><text font-family="Arial,Arial_MSFontService,sans-serif" font-weight="400" font-size="73" transform="matrix(1 0 0 1 3134.39 1589)">•</text><text font-family="Times New Roman,Times New Roman_MSFontService,sans-serif" font-weight="400" font-size="73" transform="matrix(1 0 0 1 3237.52 1589)">Anonymity preserved </text><text font-family="Times New Roman,Times New Roman_MSFontService,sans-serif" font-weight="400" font-size="73" transform="matrix(1 0 0 1 3237.52 1677)">via randomly choice </text><text font-family="Times New Roman,Times New Roman_MSFontService,sans-serif" font-weight="400" font-size="73" transform="matrix(1 0 0 1 3237.52 1765)">within filtered set</text><text font-family="Times New Roman,Times New Roman_MSFontService,sans-serif" font-weight="700" font-size="73" transform="matrix(1 0 0 1 3121.99 1426)">-------------------------------</text><path d="M2945.13 1292.13 3035.7 1293.85 3035.44 1307.6 2944.87 1305.87ZM2998.36 1270.01 3049.21 1300.99 2997.22 1330C2993.9 1331.85 2989.71 1330.66 2987.86 1327.35 2986.01 1324.03 2987.2 1319.85 2990.52 1318L3032.22 1294.72 3031.99 1306.6 2991.21 1281.75C2987.96 1279.78 2986.94 1275.55 2988.91 1272.31 2990.89 1269.06 2995.12 1268.04 2998.36 1270.01Z"/><path d="M3108.52 774.5 3913.48 774.5C3946.08 774.5 3972.5 800.923 3972.5 833.517L3972.5 948.5 3049.5 948.5 3049.5 833.517C3049.5 800.923 3075.92 774.5 3108.52 774.5Z" stroke="#385723" stroke-width="4.58333" stroke-miterlimit="8" fill="#A9D18E" fill-rule="evenodd"/><text font-family="Times New Roman,Times New Roman_MSFontService,sans-serif" font-weight="700" font-size="73" transform="matrix(1 0 0 1 3197.87 896)">Selected Tor Circuit</text></g></svg>